<?xml version="1.0" encoding="utf-8"?>
<!-- Generator: Adobe Illustrator 26.5.0, SVG Export Plug-In . SVG Version: 6.00 Build 0)  -->
<svg version="1.1" id="Layer_1" xmlns="http://www.w3.org/2000/svg" xmlns:xlink="http://www.w3.org/1999/xlink" x="0px" y="0px"
	 width="90px" height="90px" viewBox="0 0 90 90" style="enable-background:new 0 0 90 90;" xml:space="preserve">
<style type="text/css">
	.st0{fill:#FFFFFF;}
	.st1{fill:url(#SVGID_1_);}
	.st2{fill:url(#SVGID_00000163032011265347501740000006987796745161832355_);}
	.st3{fill:url(#SVGID_00000068645026370028057410000018332551363901244839_);}
	.st4{fill:url(#SVGID_00000147904000750367710800000001075588808899213240_);}
	.st5{fill:url(#SVGID_00000131361000152702575690000011997148828210289081_);}
	.st6{fill:url(#SVGID_00000130610468145791431050000000477285226547583659_);}
</style>
<path class="st0" d="M90.02,89.09H50.05c-6.28,0-11.38-5.09-11.38-11.38V11.36c0-6.16,4.99-11.15,11.15-11.15h29.04
	c6.17,0,11.16,4.99,11.16,11.15C90.02,11.36,90.02,89.09,90.02,89.09z"/>
<path d="M64.67,15.62h-5.83V13.3c0-2.58-2.09-4.67-4.67-4.67c-2.58,0-4.67,2.09-4.67,4.67v2.33h-9.33V13.3
	c0-2.58-2.09-4.67-4.67-4.67s-4.67,2.09-4.67,4.67v2.33h-9.33V13.3c0-2.58-2.09-4.67-4.67-4.67s-4.67,2.09-4.67,4.67v2.33H6.34
	c-3.22,0-5.83,2.62-5.83,5.84v46.66c0,3.22,2.61,5.83,5.83,5.83H39c0.65,0,1.17-0.52,1.17-1.17c0-0.65-0.52-1.17-1.17-1.17H6.34
	c-1.93,0-3.5-1.57-3.5-3.5V31.96h65.32v19.83c0,0.65,0.52,1.17,1.17,1.17s1.17-0.52,1.17-1.17V21.46
	C70.5,18.25,67.89,15.62,64.67,15.62z M51.83,13.3c0-1.29,1.04-2.33,2.33-2.33s2.33,1.04,2.33,2.33v7c0,1.29-1.04,2.33-2.33,2.33
	c-1.29,0-2.33-1.04-2.33-2.33V13.3z M33.18,13.3c0-1.29,1.04-2.33,2.33-2.33c1.29,0,2.33,1.04,2.33,2.33v7
	c0,1.29-1.04,2.33-2.33,2.33c-1.29,0-2.33-1.04-2.33-2.33V13.3z M14.51,13.3c0-1.29,1.04-2.33,2.33-2.33s2.33,1.04,2.33,2.33v7
	c0,1.29-1.04,2.33-2.33,2.33s-2.33-1.04-2.33-2.33V13.3z M68.17,29.62H2.84v-8.17c0-1.93,1.57-3.5,3.5-3.5h5.83v2.33
	c0,2.58,2.09,4.67,4.67,4.67s4.67-2.09,4.67-4.67v-2.33h9.33v2.33c0,2.58,2.09,4.67,4.67,4.67c2.58,0,4.67-2.09,4.67-4.67v-2.33
	h9.33v2.33c0,2.58,2.09,4.67,4.67,4.67c2.58,0,4.67-2.09,4.67-4.67v-2.33h5.83c1.93,0,3.5,1.57,3.5,3.5V29.62z"/>
<linearGradient id="SVGID_1_" gradientUnits="userSpaceOnUse" x1="23.849" y1="50.1183" x2="33.1764" y2="50.1183" gradientTransform="matrix(1 0 0 -1 0 92)">
	<stop  offset="0" style="stop-color:#4856CE"/>
	<stop  offset="0.4609" style="stop-color:#D269AF"/>
	<stop  offset="1" style="stop-color:#FBC774"/>
</linearGradient>
<path class="st1" d="M33.18,40.13c0-1.29-1.04-2.33-2.33-2.33h-4.67c-1.29,0-2.33,1.04-2.33,2.33v3.5c0,1.29,1.04,2.33,2.33,2.33
	h4.67c1.29,0,2.33-1.04,2.33-2.33V40.13z M26.18,43.62v-3.5h4.67v3.5H26.18z"/>
<linearGradient id="SVGID_00000138569686222507453030000003654347891141763225_" gradientUnits="userSpaceOnUse" x1="9.8516" y1="50.1183" x2="19.179" y2="50.1183" gradientTransform="matrix(1 0 0 -1 0 92)">
	<stop  offset="0" style="stop-color:#4856CE"/>
	<stop  offset="0.4609" style="stop-color:#D269AF"/>
	<stop  offset="1" style="stop-color:#FBC774"/>
</linearGradient>
<path style="fill:url(#SVGID_00000138569686222507453030000003654347891141763225_);" d="M19.18,40.13c0-1.29-1.04-2.33-2.33-2.33
	h-4.67c-1.29,0-2.33,1.04-2.33,2.33v3.5c0,1.29,1.04,2.33,2.33,2.33h4.67c1.29,0,2.33-1.04,2.33-2.33V40.13z M12.18,43.62v-3.5h4.67
	v3.5H12.18z"/>
<path d="M58.83,45.96c1.29,0,2.33-1.04,2.33-2.33v-3.5c0-1.29-1.04-2.33-2.33-2.33h-4.67c-1.29,0-2.33,1.04-2.33,2.33v3.5
	c0,1.29,1.04,2.33,2.33,2.33H58.83z M54.17,40.13h4.67v3.5h-4.67V40.13z"/>
<linearGradient id="SVGID_00000054975032991644607030000007195397619378276287_" gradientUnits="userSpaceOnUse" x1="23.849" y1="39.633" x2="33.1764" y2="39.633" gradientTransform="matrix(1 0 0 -1 0 92)">
	<stop  offset="0" style="stop-color:#4856CE"/>
	<stop  offset="0.4609" style="stop-color:#D269AF"/>
	<stop  offset="1" style="stop-color:#FBC774"/>
</linearGradient>
<path style="fill:url(#SVGID_00000054975032991644607030000007195397619378276287_);" d="M33.18,50.62c0-1.29-1.04-2.33-2.33-2.33
	h-4.67c-1.29,0-2.33,1.04-2.33,2.33v3.5c0,1.29,1.04,2.33,2.33,2.33h4.67c1.29,0,2.33-1.04,2.33-2.33V50.62z M26.18,54.13v-3.5h4.67
	v3.5H26.18z"/>
<linearGradient id="SVGID_00000111179615020509073760000006069242122922179737_" gradientUnits="userSpaceOnUse" x1="9.8516" y1="39.633" x2="19.179" y2="39.633" gradientTransform="matrix(1 0 0 -1 0 92)">
	<stop  offset="0" style="stop-color:#4856CE"/>
	<stop  offset="0.4609" style="stop-color:#D269AF"/>
	<stop  offset="1" style="stop-color:#FBC774"/>
</linearGradient>
<path style="fill:url(#SVGID_00000111179615020509073760000006069242122922179737_);" d="M19.18,50.62c0-1.29-1.04-2.33-2.33-2.33
	h-4.67c-1.29,0-2.33,1.04-2.33,2.33v3.5c0,1.29,1.04,2.33,2.33,2.33h4.67c1.29,0,2.33-1.04,2.33-2.33V50.62z M12.18,54.13v-3.5h4.67
	v3.5H12.18z"/>
<linearGradient id="SVGID_00000078750057066260601060000003981967891260161671_" gradientUnits="userSpaceOnUse" x1="23.8363" y1="29.1349" x2="33.1638" y2="29.1349" gradientTransform="matrix(1 0 0 -1 0 92)">
	<stop  offset="0" style="stop-color:#4856CE"/>
	<stop  offset="0.4609" style="stop-color:#D269AF"/>
	<stop  offset="1" style="stop-color:#FBC774"/>
</linearGradient>
<path style="fill:url(#SVGID_00000078750057066260601060000003981967891260161671_);" d="M30.84,58.79h-4.67
	c-1.29,0-2.33,1.04-2.33,2.33v3.5c0,1.29,1.04,2.33,2.33,2.33h4.67c1.29,0,2.33-1.04,2.33-2.33v-3.5
	C33.18,59.83,32.13,58.79,30.84,58.79z M26.18,64.61v-3.5h4.67v3.5H26.18z"/>
<path d="M40.18,45.96h4.67c1.29,0,2.33-1.04,2.33-2.33v-3.5c0-1.29-1.04-2.33-2.33-2.33h-4.67c-1.29,0-2.33,1.04-2.33,2.33v3.5
	C37.83,44.92,38.88,45.96,40.18,45.96z M40.18,40.13h4.67v3.5h-4.67V40.13z"/>
<path d="M37.83,54.13c0,1.29,1.04,2.33,2.33,2.33c0.65,0,1.17-0.52,1.17-1.17c0-0.65-0.52-1.17-1.17-1.17v-3.5h4.67
	c0.65,0,1.17-0.52,1.17-1.17c0-0.65-0.52-1.17-1.17-1.17h-4.67c-1.29,0-2.33,1.04-2.33,2.33C37.83,50.6,37.83,54.13,37.83,54.13z"/>
<linearGradient id="SVGID_00000085939601843961954300000007059102538403459986_" gradientUnits="userSpaceOnUse" x1="9.8388" y1="29.1349" x2="19.1664" y2="29.1349" gradientTransform="matrix(1 0 0 -1 0 92)">
	<stop  offset="0" style="stop-color:#4856CE"/>
	<stop  offset="0.4609" style="stop-color:#D269AF"/>
	<stop  offset="1" style="stop-color:#FBC774"/>
</linearGradient>
<path style="fill:url(#SVGID_00000085939601843961954300000007059102538403459986_);" d="M16.84,58.79h-4.67
	c-1.29,0-2.33,1.04-2.33,2.33v3.5c0,1.29,1.04,2.33,2.33,2.33h4.67c1.29,0,2.33-1.04,2.33-2.33v-3.5
	C19.18,59.83,18.14,58.79,16.84,58.79z M12.18,64.61v-3.5h4.67v3.5H12.18z"/>
<path d="M55.33,48.29c-8.37,0-15.17,6.8-15.17,15.17s6.8,15.17,15.17,15.17s15.17-6.8,15.17-15.17
	C70.49,55.08,63.7,48.3,55.33,48.29z M55.33,76.28c-7.09,0-12.83-5.74-12.83-12.83s5.74-12.83,12.83-12.83s12.83,5.74,12.83,12.83
	C68.16,70.53,62.42,76.28,55.33,76.28z"/>
<path d="M62.07,58.57L53,67.64l-4.12-4.12c-0.46-0.45-1.2-0.43-1.65,0.03c-0.43,0.46-0.43,1.17,0,1.62l4.95,4.95
	c0.46,0.46,1.2,0.46,1.65,0l9.9-9.9c0.45-0.46,0.43-1.2-0.03-1.65C63.25,58.13,62.53,58.13,62.07,58.57z"/>
</svg>
