<?xml version="1.0" encoding="utf-8"?>
<!-- Generator: Adobe Illustrator 26.5.0, SVG Export Plug-In . SVG Version: 6.00 Build 0)  -->
<svg version="1.1" id="Layer_1" xmlns="http://www.w3.org/2000/svg" xmlns:xlink="http://www.w3.org/1999/xlink" x="0px" y="0px"
	 width="90px" height="90px" viewBox="0 0 90 90" style="enable-background:new 0 0 90 90;" xml:space="preserve">
<style type="text/css">
	.st0{fill:#FFFFFF;}
	.st1{fill:url(#SVGID_1_);}
	.st2{fill:url(#SVGID_00000120524795794916711800000007247031011061891773_);}
	.st3{fill:url(#SVGID_00000098904248311585791710000008458422601840102562_);}
	.st4{fill:url(#SVGID_00000062882493759157172110000015097980745457813428_);}
	.st5{fill:url(#SVGID_00000090270778800302679320000017149578266959370382_);}
</style>
<path class="st0" d="M89.35,89.44H49.38C43.1,89.44,38,84.35,38,78.06V11.71c0-6.16,4.99-11.15,11.15-11.15h29.04
	c6.17,0,11.16,4.99,11.16,11.15C89.35,11.71,89.35,89.44,89.35,89.44z"/>
<linearGradient id="SVGID_1_" gradientUnits="userSpaceOnUse" x1="22.9685" y1="57.9307" x2="47.0192" y2="57.9307" gradientTransform="matrix(1 0 0 -1 0 92)">
	<stop  offset="0" style="stop-color:#4856CE"/>
	<stop  offset="0.4609" style="stop-color:#D269AF"/>
	<stop  offset="1" style="stop-color:#FBC774"/>
</linearGradient>
<path class="st1" d="M46.42,27.08l-10.93-5.47c-0.31-0.15-0.67-0.15-0.98,0l-10.93,5.47c-0.37,0.19-0.61,0.56-0.61,0.98v12.03
	c0,0.42,0.23,0.79,0.61,0.98l10.93,5.47c0.15,0.08,0.32,0.11,0.48,0.11s0.33-0.04,0.48-0.11l10.93-5.47
	c0.37-0.19,0.61-0.56,0.61-0.98V28.06C47.03,27.65,46.79,27.27,46.42,27.08L46.42,27.08z M44.84,39.41l-8.75,4.38V34.2l5.96-2.98
	c0.53-0.27,0.76-0.93,0.48-1.46c-0.27-0.53-0.93-0.76-1.46-0.48l-6.07,3.04l-6.07-3.04c-0.55-0.27-1.2-0.05-1.46,0.48
	c-0.27,0.53-0.05,1.2,0.48,1.46l5.96,2.98v9.58l-8.75-4.38V28.73l9.84-4.92l9.84,4.92L44.84,39.41L44.84,39.41z"/>
<path d="M68.89,26.96h-3.28v-1.09c0-4.82-3.92-8.75-8.75-8.75H12.04c-4.58,0-7.66,3.51-7.66,8.75v1.09H1.09
	c-0.6,0-1.09,0.5-1.09,1.09v12.03c0,0.6,0.5,1.09,1.09,1.09h3.28v30.62c0,0.6,0.48,1.09,1.09,1.09h59.06c0.6,0,1.09-0.5,1.09-1.09
	V41.18h3.28c0.6,0,1.09-0.48,1.09-1.09V28.06C69.99,27.46,69.5,26.96,68.89,26.96z M63.43,25.87v1.09H52.5v-4.38
	c0-1.23-0.43-2.37-1.12-3.28h5.5C60.49,19.31,63.43,22.25,63.43,25.87z M6.57,25.87c0-3.03,1.44-6.57,5.47-6.57h6.59
	c-0.7,0.92-1.12,2.05-1.12,3.28v4.38H6.57V25.87z M45.94,70.71H36.1V56.5h9.84V70.71z M33.9,70.71h-9.84V56.5h9.84
	C33.9,56.5,33.9,70.71,33.9,70.71z M67.81,39H51.4c-0.6,0-1.09,0.5-1.09,1.09v5.47c0,1.81-1.48,3.28-3.28,3.28h-8.75
	c-0.6,0-1.09,0.5-1.09,1.09s0.5,1.09,1.09,1.09h8.75c3.02,0,5.47-2.46,5.47-5.47v-4.38h10.93v29.52h-15.3V55.4
	c0-0.6-0.5-1.09-1.09-1.09H22.97c-0.6,0-1.09,0.5-1.09,1.09v15.31H6.57V41.19H17.5v4.38c0,3.02,2.46,5.47,5.47,5.47h8.75
	c0.6,0,1.09-0.5,1.09-1.09c0-0.6-0.5-1.09-1.09-1.09h-8.75c-1.81,0-3.28-1.48-3.28-3.28v-5.47c0-0.6-0.5-1.09-1.09-1.09H2.19v-9.84
	h16.4c0.6,0,1.09-0.48,1.09-1.09V22.6c0-1.81,1.48-3.28,3.28-3.28h24.06c1.81,0,3.28,1.48,3.28,3.28v5.47c0,0.6,0.5,1.09,1.09,1.09
	h16.4V39z"/>
<linearGradient id="SVGID_00000150084463006453963760000010930543720851311757_" gradientUnits="userSpaceOnUse" x1="51.402" y1="29.4968" x2="53.5907" y2="29.4968" gradientTransform="matrix(1 0 0 -1 0 92)">
	<stop  offset="0" style="stop-color:#4856CE"/>
	<stop  offset="0.4609" style="stop-color:#D269AF"/>
	<stop  offset="1" style="stop-color:#FBC774"/>
</linearGradient>
<path style="fill:url(#SVGID_00000150084463006453963760000010930543720851311757_);" d="M52.49,66.33c0.6,0,1.09-0.5,1.09-1.09
	v-5.47c0-0.6-0.5-1.09-1.09-1.09c-0.6,0-1.09,0.5-1.09,1.09v5.47C51.4,65.85,51.89,66.33,52.49,66.33z"/>
<linearGradient id="SVGID_00000040574328132321362760000008556427143186725251_" gradientUnits="userSpaceOnUse" x1="16.4083" y1="29.4968" x2="18.597" y2="29.4968" gradientTransform="matrix(1 0 0 -1 0 92)">
	<stop  offset="0" style="stop-color:#4856CE"/>
	<stop  offset="0.4609" style="stop-color:#D269AF"/>
	<stop  offset="1" style="stop-color:#FBC774"/>
</linearGradient>
<path style="fill:url(#SVGID_00000040574328132321362760000008556427143186725251_);" d="M17.5,58.67c-0.6,0-1.09,0.5-1.09,1.09
	v5.47c0,0.6,0.5,1.09,1.09,1.09s1.09-0.5,1.09-1.09v-5.47C18.59,59.17,18.11,58.67,17.5,58.67z"/>
<linearGradient id="SVGID_00000167390945658861466680000006158009349310259336_" gradientUnits="userSpaceOnUse" x1="51.402" y1="36.5973" x2="53.5907" y2="36.5973" gradientTransform="matrix(1 0 0 -1 0 92)">
	<stop  offset="0" style="stop-color:#4856CE"/>
	<stop  offset="0.4609" style="stop-color:#D269AF"/>
	<stop  offset="1" style="stop-color:#FBC774"/>
</linearGradient>
<circle style="fill:url(#SVGID_00000167390945658861466680000006158009349310259336_);" cx="52.49" cy="55.4" r="1.09"/>
<linearGradient id="SVGID_00000155857839540923325370000006659674072154875037_" gradientUnits="userSpaceOnUse" x1="16.4083" y1="36.5973" x2="18.597" y2="36.5973" gradientTransform="matrix(1 0 0 -1 0 92)">
	<stop  offset="0" style="stop-color:#4856CE"/>
	<stop  offset="0.4609" style="stop-color:#D269AF"/>
	<stop  offset="1" style="stop-color:#FBC774"/>
</linearGradient>
<circle style="fill:url(#SVGID_00000155857839540923325370000006659674072154875037_);" cx="17.5" cy="55.4" r="1.09"/>
</svg>
