<?xml version="1.0" encoding="utf-8"?>
<!-- Generator: Adobe Illustrator 26.5.0, SVG Export Plug-In . SVG Version: 6.00 Build 0)  -->
<svg version="1.1" id="Capa_1" xmlns="http://www.w3.org/2000/svg" xmlns:xlink="http://www.w3.org/1999/xlink" x="0px" y="0px"
	 width="90px" height="90px" viewBox="0 0 90 90" style="enable-background:new 0 0 90 90;" xml:space="preserve">
<style type="text/css">
	.st0{fill:#FFFFFF;}
	.st1{fill:url(#SVGID_1_);}
	.st2{fill:url(#SVGID_00000081613102089971051820000013121373047028500666_);}
</style>
<path class="st0" d="M89.92,89.08H49.95c-6.28,0-11.38-5.09-11.38-11.38V11.35c0-6.16,4.99-11.15,11.15-11.15h29.04
	c6.17,0,11.16,4.99,11.16,11.15V89.08z"/>
<path d="M69.26,66.21h-1.82V29.38c0-2.7-2.2-4.89-4.9-4.89h-2.41c0.27-0.55,0.41-1.16,0.41-1.79c0-1.54-0.85-2.95-2.21-3.68
	l-13.4-7.1c-0.5-0.27-1.12-0.08-1.39,0.42c-0.27,0.5-0.08,1.12,0.42,1.39l13.4,7.1c0.7,0.37,1.12,1.07,1.12,1.87
	s-0.42,1.5-1.12,1.87l-13.02,6.88l-8.28-9.44c-0.37-0.42-1.02-0.47-1.45-0.09c-0.42,0.37-0.47,1.02-0.09,1.45l7.97,9.09l-4.92,2.61
	c-1.41,0.75-3.1,0.75-4.53,0L13.2,24.57c-0.7-0.37-1.12-1.07-1.12-1.87s0.42-1.5,1.12-1.87l19.83-10.5c1.41-0.75,3.1-0.75,4.53,0
	l2.84,1.5c0.5,0.27,1.12,0.08,1.39-0.42c0.27-0.5,0.08-1.12-0.42-1.39l-2.84-1.5c-2.02-1.07-4.43-1.07-6.44,0L12.24,19.01
	c-1.36,0.73-2.21,2.14-2.21,3.68c0,0.64,0.14,1.25,0.41,1.79H8.02c-2.7,0-4.9,2.19-4.9,4.89v36.83H1.32
	c-0.57,0.01-1.03,0.47-1.03,1.04v2.28c0,3.66,2.98,6.66,6.66,6.66h56.69c3.66,0,6.66-2.98,6.66-6.66v-2.28
	C70.27,66.66,69.82,66.21,69.26,66.21L69.26,66.21z M44.1,48.42l1.34,2.32c0.28,0.48,0.09,0.9,0,1.06
	c-0.09,0.17-0.37,0.53-0.92,0.53h-0.84c-0.55,0-0.83-0.37-0.92-0.53s-0.28-0.59,0-1.06L44.1,48.42z M45.13,33.36l4.24-2.25v4.07
	c0,2.93-1.65,5.55-4.24,6.8C45.13,41.98,45.13,33.36,45.13,33.36z M35.28,37.68c1.11,0,2.21-0.27,3.22-0.8l4.57-2.42v8.32
	c-5.6,1.86-11.8,1.64-17.27-0.62c-2.8-1.17-4.62-3.89-4.62-6.96v-4.07l10.87,5.75C33.07,37.41,34.17,37.68,35.28,37.68z M5.19,29.38
	c0-1.57,1.27-2.84,2.84-2.84h4.53l5.17,2.74H8.94c-0.56,0-1.03,0.46-1.03,1.03v32.16c0,0.56,0.46,1.03,1.03,1.03h5.41
	c0.56,0,1.03-0.46,1.03-1.03c0-0.56-0.46-1.03-1.03-1.03H9.97V31.31h9.19v3.87c0,3.89,2.3,7.37,5.88,8.86
	c3.26,1.35,6.76,2.04,10.26,2.04c2.63,0,5.27-0.38,7.79-1.15v1.18l-2.09,3.61c-0.56,0.98-0.56,2.14,0,3.1s1.57,1.55,2.7,1.55h0.84
	c1.12,0,2.14-0.59,2.7-1.55c0.56-0.98,0.56-2.14,0-3.1l-2.09-3.61v-1.9c0.14-0.05,0.28-0.11,0.42-0.17
	c3.58-1.49,5.88-4.96,5.88-8.86v-3.87h9.19v30.11H18.46c-0.56,0-1.03,0.46-1.03,1.03c0,0.56,0.46,1.03,1.03,1.03h43.18
	c0.56,0,1.03-0.46,1.03-1.03V30.3c0-0.56-0.46-1.03-1.03-1.03h-8.78l5.17-2.74h4.53c1.57,0,2.84,1.27,2.84,2.84v36.83H5.19V29.38z
	 M41.63,68.25c-0.38,1.11-1.43,1.9-2.66,1.9H31.6c-1.23,0-2.28-0.79-2.66-1.9H41.63z M68.22,69.5c0,2.53-2.06,4.59-4.59,4.59H6.94
	c-2.53,0-4.59-2.06-4.59-4.59v-1.25h1.81h0.01h22.68c0.43,2.24,2.41,3.94,4.77,3.94h7.37c2.37,0,4.34-1.71,4.77-3.94h22.68h0.01
	h1.81L68.22,69.5z"/>
<linearGradient id="SVGID_1_" gradientUnits="userSpaceOnUse" x1="5.23" y1="34.3333" x2="27.8168" y2="34.3333" gradientTransform="matrix(1 0 0 -1 0 92)">
	<stop  offset="0" style="stop-color:#4856CE"/>
	<stop  offset="0.4609" style="stop-color:#D269AF"/>
	<stop  offset="1" style="stop-color:#FBC774"/>
</linearGradient>
<path class="st1" d="M27.82,57.67c0-0.56-0.46-1.03-1.03-1.03H6.26c-0.56,0-1.03,0.46-1.03,1.03c0,0.56,0.46,1.03,1.03,1.03h20.53
	C27.36,58.68,27.82,58.23,27.82,57.67z"/>
<linearGradient id="SVGID_00000094603176395982127900000004383479954975918985_" gradientUnits="userSpaceOnUse" x1="5.23" y1="38.6471" x2="21.0031" y2="38.6471" gradientTransform="matrix(1 0 0 -1 0 92)">
	<stop  offset="0" style="stop-color:#4856CE"/>
	<stop  offset="0.4609" style="stop-color:#D269AF"/>
	<stop  offset="1" style="stop-color:#FBC774"/>
</linearGradient>
<path style="fill:url(#SVGID_00000094603176395982127900000004383479954975918985_);" d="M6.26,54.38h13.73
	c0.56,0,1.03-0.46,1.03-1.03s-0.46-1.03-1.03-1.03H6.26c-0.56,0-1.03,0.46-1.03,1.03S5.7,54.38,6.26,54.38z"/>
</svg>
