<?xml version="1.0" encoding="utf-8"?>
<!-- Generator: Adobe Illustrator 26.5.0, SVG Export Plug-In . SVG Version: 6.00 Build 0)  -->
<svg version="1.1" id="Layer_3" xmlns="http://www.w3.org/2000/svg" xmlns:xlink="http://www.w3.org/1999/xlink" x="0px" y="0px"
	 width="90px" height="90px" viewBox="0 0 90 90" style="enable-background:new 0 0 90 90;" xml:space="preserve">
<style type="text/css">
	.st0{fill:#FFFFFF;}
	.st1{fill:url(#SVGID_1_);}
	.st2{fill:url(#SVGID_00000129921281183930609850000012668187806239370627_);}
	.st3{fill:url(#SVGID_00000012458436564515983870000006347364574902975652_);}
	.st4{fill:url(#SVGID_00000142855543554868735890000013124222769270386602_);}
</style>
<path class="st0" d="M89.88,89.44H49.91c-6.28,0-11.38-5.09-11.38-11.38V11.71c0-6.16,4.99-11.15,11.15-11.15h29.04
	c6.16,0,11.15,4.99,11.15,11.15L89.88,89.44L89.88,89.44z"/>
<path d="M5.64,63.77h15.49l-1.7,6.77h-0.25c-3.11,0-5.64,2.53-5.64,5.64c0,0.62,0.51,1.13,1.13,1.13h8.11
	c1.03,4.65,5.63,7.6,10.28,6.57c2.67-0.58,4.9-2.41,6.01-4.9l0.26-0.57c1.72-3.83,6.24-5.54,10.07-3.82
	c1.7,0.77,3.05,2.12,3.82,3.82l0.26,0.57c1.93,4.35,7.04,6.31,11.39,4.36c3.55-1.57,5.59-5.33,5.02-9.16v-0.04l-2.17-11.77
	c-0.48-3.19-2.63-5.86-5.63-7.03v-1.76c0-0.95-0.41-1.87-1.13-2.5V19.74c0-3.11-2.53-5.64-5.64-5.64H5.64C2.53,14.1,0,16.63,0,19.74
	v38.39C0,61.25,2.53,63.77,5.64,63.77z M23.46,63.77h1.14l-1.24,6.77h-1.59L23.46,63.77z M19.19,72.81h3.74l-0.26,1.39
	c-0.05,0.29-0.07,0.58-0.09,0.87h-6.6C16.48,73.71,17.76,72.81,19.19,72.81z M65.49,62.78l2.17,11.78c0.27,1.81-0.25,3.66-1.45,5.06
	c-2.29,2.68-6.34,2.99-9,0.68c-0.71-0.61-1.28-1.36-1.66-2.22l-0.25-0.57c-2.23-4.97-8.07-7.19-13.06-4.96
	c-2.21,0.99-3.97,2.75-4.96,4.96l-0.25,0.57c-1.45,3.21-5.23,4.65-8.44,3.2c-0.86-0.38-1.61-0.95-2.22-1.66
	c-1.19-1.39-1.72-3.22-1.45-5.03l2.18-11.83c0.51-3.32,3.37-5.77,6.73-5.74h24.95C62.12,56.99,64.99,59.44,65.49,62.78z
	 M37.25,54.74h-3.43c-0.36,0-0.72,0.02-1.08,0.07v-1.2c0-0.62,0.51-1.13,1.13-1.13h2.26c0.62,0,1.13,0.51,1.13,1.13
	C37.25,53.61,37.25,54.74,37.25,54.74z M58.76,54.74h-3.43v-1.13c0-0.62,0.51-1.13,1.13-1.13h2.26c0.62,0,1.13,0.51,1.13,1.13v1.2
	C59.48,54.77,59.12,54.74,58.76,54.74L58.76,54.74z M2.26,19.74c0-1.87,1.51-3.38,3.38-3.38h49.67c1.87,0,3.38,1.51,3.38,3.38v30.48
	h-2.26V19.74c0-0.62-0.51-1.13-1.13-1.13H5.64c-0.62,0-1.13,0.51-1.13,1.13v33.87c0,0.62,0.51,1.13,1.13,1.13h22.58v-2.26H6.77
	v-31.6h47.41v30.23c-0.72,0.63-1.13,1.55-1.13,2.5v1.13h-5.64c0-1.87-1.51-3.38-3.38-3.38h-0.57c-0.31,0-0.57-0.25-0.57-0.57
	c0-0.31,0.25-0.57,0.57-0.57h2.83c2.49,0,4.51-2.02,4.51-4.51v-1.13h-2.26v1.13c0,1.25-1.02,2.26-2.26,2.26h-2.83
	c-1.56,0-2.83,1.26-2.83,2.83s1.26,2.83,2.83,2.83h0.57c0.62,0,1.13,0.51,1.13,1.13h-5.64v-1.13c0-1.87-1.51-3.38-3.38-3.38h-2.26
	c-1.87,0-3.38,1.51-3.38,3.38v1.76c-2.7,1.04-4.74,3.34-5.44,6.15H5.64c-1.87,0-3.38-1.51-3.38-3.38
	C2.26,58.14,2.26,19.74,2.26,19.74z"/>
<path d="M41.77,62.64h-2.26v-2.26c0-0.62-0.51-1.13-1.13-1.13h-4.51c-0.62,0-1.13,0.51-1.13,1.13v2.26h-2.26
	c-0.62,0-1.13,0.51-1.13,1.13v4.51c0,0.62,0.51,1.13,1.13,1.13h2.26v2.26c0,0.62,0.51,1.13,1.13,1.13h4.51
	c0.62,0,1.13-0.51,1.13-1.13v-2.26h2.26c0.62,0,1.13-0.51,1.13-1.13v-4.51C42.9,63.15,42.39,62.64,41.77,62.64z M40.64,67.17h-2.26
	c-0.62,0-1.13,0.51-1.13,1.13v2.26h-2.27v-2.26c0-0.62-0.51-1.13-1.13-1.13H31.6v-2.26h2.26c0.62,0,1.13-0.51,1.13-1.13v-2.26h2.26
	v2.26c0,0.62,0.51,1.13,1.13,1.13h2.26v2.26C40.63,67.17,40.64,67.17,40.64,67.17z"/>
<path d="M53.05,61.51c0,0.52,0.12,1.03,0.36,1.49c-0.46-0.24-0.97-0.36-1.49-0.36c-1.87,0-3.38,1.51-3.38,3.38
	c0,1.87,1.51,3.38,3.38,3.38c0.52,0,1.03-0.12,1.49-0.36c-0.24,0.46-0.36,0.97-0.36,1.49c0,1.87,1.51,3.38,3.38,3.38
	c1.87,0,3.38-1.51,3.38-3.38c0-0.52-0.12-1.03-0.36-1.49c0.46,0.24,0.97,0.36,1.49,0.36c1.87,0,3.38-1.51,3.38-3.38
	s-1.51-3.38-3.38-3.38l0,0c-0.52,0-1.03,0.12-1.49,0.36c0.24-0.46,0.36-0.97,0.36-1.49c0-1.87-1.51-3.38-3.38-3.38
	C54.57,58.13,53.05,59.65,53.05,61.51z M54.95,64.54c0.93,0.48,2.05,0.48,2.98,0c-0.48,0.93-0.48,2.05,0,2.98
	c-0.93-0.48-2.05-0.48-2.98,0C55.43,66.58,55.43,65.48,54.95,64.54z M51.93,67.17c-0.62,0-1.13-0.51-1.13-1.13
	c0-0.62,0.51-1.13,1.13-1.13s1.13,0.51,1.13,1.13C53.05,66.66,52.55,67.17,51.93,67.17z M56.44,71.68c-0.62,0-1.13-0.51-1.13-1.13
	c0-0.62,0.51-1.13,1.13-1.13s1.13,0.51,1.13,1.13S57.07,71.68,56.44,71.68z M60.95,64.91c0.62,0,1.13,0.51,1.13,1.13
	c0,0.62-0.51,1.13-1.13,1.13s-1.13-0.51-1.13-1.13C59.82,65.4,60.33,64.91,60.95,64.91z M57.57,61.51c0,0.62-0.51,1.13-1.13,1.13
	s-1.13-0.51-1.13-1.13s0.51-1.13,1.13-1.13C57.07,60.38,57.57,60.89,57.57,61.51z"/>
<linearGradient id="SVGID_1_" gradientUnits="userSpaceOnUse" x1="13.5394" y1="943.5547" x2="47.4128" y2="943.5547" gradientTransform="matrix(1 0 0 1 0 -908)">
	<stop  offset="0" style="stop-color:#4856CE"/>
	<stop  offset="0.4609" style="stop-color:#D269AF"/>
	<stop  offset="1" style="stop-color:#FBC774"/>
</linearGradient>
<path class="st1" d="M47.41,44.59V26.52c0-0.62-0.51-1.13-1.13-1.13H14.67c-0.62,0-1.13,0.51-1.13,1.13v18.06
	c0,0.62,0.51,1.13,1.13,1.13h31.6C46.9,45.72,47.41,45.21,47.41,44.59z M45.16,43.46H15.8V27.65h29.36V43.46z"/>
<linearGradient id="SVGID_00000041289270911151276010000013483689948665773241_" gradientUnits="userSpaceOnUse" x1="21.4459" y1="943.5485" x2="26.7595" y2="943.5485" gradientTransform="matrix(1 0 0 1 0 -908)">
	<stop  offset="0" style="stop-color:#4856CE"/>
	<stop  offset="0.4609" style="stop-color:#D269AF"/>
	<stop  offset="1" style="stop-color:#FBC774"/>
</linearGradient>
<path style="fill:url(#SVGID_00000041289270911151276010000013483689948665773241_);" d="M25.16,39.74l1.6-1.6l-2.59-2.59l2.59-2.59
	l-1.6-1.6l-3.38,3.38c-0.45,0.45-0.45,1.15,0,1.6L25.16,39.74z"/>
<linearGradient id="SVGID_00000162345462446170592750000010323004847821520785_" gradientUnits="userSpaceOnUse" x1="34.1958" y1="943.5547" x2="39.5094" y2="943.5547" gradientTransform="matrix(1 0 0 1 0 -908)">
	<stop  offset="0" style="stop-color:#4856CE"/>
	<stop  offset="0.4609" style="stop-color:#D269AF"/>
	<stop  offset="1" style="stop-color:#FBC774"/>
</linearGradient>
<path style="fill:url(#SVGID_00000162345462446170592750000010323004847821520785_);" d="M35.8,39.74l3.38-3.38
	c0.45-0.45,0.45-1.15,0-1.6l-3.38-3.38l-1.6,1.6l2.59,2.59l-2.59,2.59L35.8,39.74z"/>
<linearGradient id="SVGID_00000024683651336798052080000007035944739369156286_" gradientUnits="userSpaceOnUse" x1="28.2816" y1="942.9844" x2="33.8114" y2="942.9844" gradientTransform="matrix(1 0 0 1 0 -908)">
	<stop  offset="0" style="stop-color:#4856CE"/>
	<stop  offset="0.4609" style="stop-color:#D269AF"/>
	<stop  offset="1" style="stop-color:#FBC774"/>
</linearGradient>
<polygon style="fill:url(#SVGID_00000024683651336798052080000007035944739369156286_);" points="28.28,39.71 31.67,29.55 
	33.81,30.27 30.41,40.42 "/>
</svg>
