<?xml version="1.0" encoding="utf-8"?>
<!-- Generator: Adobe Illustrator 26.5.0, SVG Export Plug-In . SVG Version: 6.00 Build 0)  -->
<svg version="1.1" id="Layer_1" xmlns="http://www.w3.org/2000/svg" xmlns:xlink="http://www.w3.org/1999/xlink" x="0px" y="0px"
	 width="90px" height="90px" viewBox="0 0 90 90" style="enable-background:new 0 0 90 90;" xml:space="preserve">
<style type="text/css">
	.st0{fill:#FFFFFF;}
	.st1{fill:url(#SVGID_1_);}
	.st2{fill:url(#SVGID_00000056386191055295219960000018256739150699962550_);}
	.st3{fill:url(#SVGID_00000078728884289555219270000012166672989588877699_);}
	.st4{fill:url(#SVGID_00000012432290421470771920000011974026100038482616_);}
</style>
<path class="st0" d="M90.04,88.99H50.07c-6.28,0-11.38-5.09-11.38-11.38V11.26c0-6.16,4.99-11.15,11.15-11.15h29.04
	c6.17,0,11.16,4.99,11.16,11.15C90.04,11.26,90.04,88.99,90.04,88.99z"/>
<path d="M40.18,70.83h-2.29V59.58c0-0.64-0.51-1.15-1.15-1.15c-0.64,0-1.15,0.51-1.15,1.15v11.26H5.74V47.86h9.55
	c0.64,0,1.15-0.51,1.15-1.15c0-0.64-0.51-1.15-1.15-1.15H4.6c-0.64,0-1.15,0.51-1.15,1.15v24.1H1.16c-0.64,0-1.15,0.51-1.15,1.15
	v2.29c0,3.17,2.57,5.74,5.74,5.74H35.6c3.17,0,5.74-2.57,5.74-5.74v-2.29C41.33,71.34,40.82,70.83,40.18,70.83z M39.04,74.27
	c0,1.9-1.54,3.44-3.44,3.44h-2.29v-1.15c0-0.64-0.51-1.15-1.15-1.15c-0.64,0-1.15,0.51-1.15,1.15v1.15H10.34v-1.15
	c0-0.64-0.51-1.15-1.15-1.15s-1.15,0.51-1.15,1.15v1.15H5.75c-1.9,0-3.44-1.54-3.44-3.44v-1.15h36.73v1.15H39.04z"/>
<linearGradient id="SVGID_1_" gradientUnits="userSpaceOnUse" x1="53.9578" y1="70.5413" x2="63.1375" y2="70.5413" gradientTransform="matrix(1 0 0 -1 0 92)">
	<stop  offset="0" style="stop-color:#4856CE"/>
	<stop  offset="0.4609" style="stop-color:#D269AF"/>
	<stop  offset="1" style="stop-color:#FBC774"/>
</linearGradient>
<path class="st1" d="M59.7,18.02h2.29c0.64,0,1.15-0.51,1.15-1.15s-0.51-1.15-1.15-1.15H59.7c-1.9,0-3.44,1.54-3.44,3.44v1.15H55.1
	c-0.64,0-1.15,0.51-1.15,1.15s0.51,1.15,1.15,1.15h1.15v3.44c0,0.64,0.51,1.15,1.15,1.15c0.64,0,1.15-0.51,1.15-1.15V22.6h1.15
	c0.64,0,1.15-0.51,1.15-1.15s-0.51-1.15-1.15-1.15h-1.15v-1.15C58.54,18.54,59.06,18.02,59.7,18.02z"/>
<linearGradient id="SVGID_00000067922691994674043140000008341370537630535816_" gradientUnits="userSpaceOnUse" x1="48.2284" y1="70.5413" x2="68.8796" y2="70.5413" gradientTransform="matrix(1 0 0 -1 0 92)">
	<stop  offset="0" style="stop-color:#4856CE"/>
	<stop  offset="0.4609" style="stop-color:#D269AF"/>
	<stop  offset="1" style="stop-color:#FBC774"/>
</linearGradient>
<path style="fill:url(#SVGID_00000067922691994674043140000008341370537630535816_);" d="M65.43,11.13H51.67
	c-1.9,0-3.44,1.54-3.44,3.44v2.29c0,0.64,0.51,1.15,1.15,1.15c0.64,0,1.15-0.51,1.15-1.15v-2.29c0-0.64,0.51-1.15,1.15-1.15h13.78
	c0.64,0,1.15,0.51,1.15,1.15v13.78c0,0.64-0.51,1.15-1.15,1.15H51.67c-0.64,0-1.15-0.51-1.15-1.15v-6.89c0-0.64-0.51-1.15-1.15-1.15
	c-0.64,0-1.15,0.51-1.15,1.15v6.89c0,1.9,1.54,3.44,3.44,3.44h13.78c1.9,0,3.44-1.54,3.44-3.44V14.58
	C68.88,12.67,67.34,11.13,65.43,11.13z"/>
<path d="M53.96,57.06c0,2.53,2.05,4.6,4.6,4.6c2.55,0,4.6-2.05,4.6-4.6c0-2.55-2.05-4.6-4.6-4.6
	C56.01,52.46,53.96,54.52,53.96,57.06z M60.85,57.06c0,1.27-1.03,2.29-2.29,2.29c-1.26,0-2.29-1.03-2.29-2.29
	c0-1.26,1.03-2.29,2.29-2.29C59.81,54.77,60.85,55.78,60.85,57.06z"/>
<path d="M65.43,46.72H51.67c-1.9,0-3.44,1.54-3.44,3.44v13.78c0,1.9,1.54,3.44,3.44,3.44h13.78c1.9,0,3.44-1.54,3.44-3.44v-2.29
	c0-0.64-0.51-1.15-1.15-1.15s-1.15,0.51-1.15,1.15v2.29c0,0.64-0.51,1.15-1.15,1.15H51.67c-0.64,0-1.15-0.51-1.15-1.15V50.17
	c0-0.64,0.51-1.15,1.15-1.15h13.78c0.64,0,1.15,0.51,1.15,1.15v6.89c0,0.64,0.51,1.15,1.15,1.15c0.64,0,1.15-0.51,1.15-1.15v-6.89
	C68.88,48.26,67.34,46.72,65.43,46.72z"/>
<linearGradient id="SVGID_00000056415682421761344950000008266132742700140967_" gradientUnits="userSpaceOnUse" x1="25.2601" y1="71.659" x2="34.4403" y2="71.659" gradientTransform="matrix(1 0 0 -1 0 92)">
	<stop  offset="0" style="stop-color:#4856CE"/>
	<stop  offset="0.4609" style="stop-color:#D269AF"/>
	<stop  offset="1" style="stop-color:#FBC774"/>
</linearGradient>
<path style="fill:url(#SVGID_00000056415682421761344950000008266132742700140967_);" d="M25.79,24.74
	c0.18,0.11,0.39,0.18,0.61,0.18c0.18,0,0.36-0.04,0.52-0.13l6.89-3.44c0.56-0.29,0.79-0.98,0.5-1.54c-0.11-0.22-0.28-0.39-0.5-0.5
	l-6.89-3.44c-0.56-0.28-1.26-0.06-1.54,0.51c-0.08,0.17-0.13,0.33-0.13,0.51v6.89C25.26,24.16,25.46,24.53,25.79,24.74z
	 M27.55,18.73l3.17,1.58l-3.17,1.58V18.73z"/>
<linearGradient id="SVGID_00000098937799747738333780000005603183356671233179_" gradientUnits="userSpaceOnUse" x1="18.3721" y1="71.6744" x2="39.0233" y2="71.6744" gradientTransform="matrix(1 0 0 -1 0 92)">
	<stop  offset="0" style="stop-color:#4856CE"/>
	<stop  offset="0.4609" style="stop-color:#D269AF"/>
	<stop  offset="1" style="stop-color:#FBC774"/>
</linearGradient>
<path style="fill:url(#SVGID_00000098937799747738333780000005603183356671233179_);" d="M28.7,30.65c5.7,0,10.33-4.62,10.33-10.33
	S34.4,10,28.7,10s-10.33,4.62-10.33,10.33S22.99,30.65,28.7,30.65z M28.7,12.28c4.44,0,8.03,3.6,8.03,8.03s-3.6,8.03-8.03,8.03
	s-8.03-3.6-8.03-8.03S24.27,12.28,28.7,12.28z"/>
<path d="M40.18,35.25c0.36,0,0.7-0.17,0.92-0.46l3.44-4.6c0.38-0.51,0.28-1.22-0.23-1.6s-1.22-0.28-1.6,0.23l-3.44,4.6
	c-0.38,0.51-0.28,1.22,0.23,1.6C39.69,35.16,39.93,35.25,40.18,35.25z"/>
<path d="M42.7,39.37c0.22,0.29,0.56,0.46,0.92,0.46c0.25,0,0.48-0.08,0.69-0.23l4.6-3.44c0.51-0.38,0.61-1.09,0.23-1.6
	c-0.38-0.51-1.09-0.61-1.6-0.23l-4.6,3.44C42.42,38.15,42.32,38.86,42.7,39.37L42.7,39.37z"/>
<path d="M53.96,41.91c-0.11-0.62-0.71-1.04-1.34-0.93c-0.01,0-0.03,0-0.05,0.01l-5.74,1.15c-0.64,0.06-1.09,0.62-1.03,1.26
	c0.06,0.64,0.62,1.09,1.26,1.03h0.23l5.74-1.15c0.62-0.11,1.04-0.71,0.93-1.34C53.96,41.93,53.96,41.92,53.96,41.91z"/>
<path d="M1.15,42.14h13.78c0.64,0,1.15-0.51,1.15-1.15V22.62c0-0.64-0.51-1.15-1.15-1.15H1.15C0.51,21.47,0,21.98,0,22.62v18.37
	C0,41.61,0.51,42.14,1.15,42.14z M2.29,23.76h11.48v16.07H2.29V23.76z"/>
<path d="M10.34,26.05H8.05c-0.64,0-1.15,0.51-1.15,1.15c0,0.64,0.51,1.15,1.15,1.15h2.29c0.64,0,1.15-0.51,1.15-1.15
	C11.48,26.56,10.96,26.05,10.34,26.05z"/>
<path d="M10.34,30.65h-4.6c-0.64,0-1.15,0.51-1.15,1.15c0,0.64,0.51,1.15,1.15,1.15h4.6c0.64,0,1.15-0.51,1.15-1.15
	C11.48,31.16,10.96,30.65,10.34,30.65z"/>
<path d="M10.34,35.25h-4.6c-0.64,0-1.15,0.51-1.15,1.15c0,0.64,0.51,1.15,1.15,1.15h4.6c0.64,0,1.15-0.51,1.15-1.15
	C11.48,35.76,10.96,35.25,10.34,35.25z"/>
<path d="M39.18,41.79c-0.32-0.55-1.02-0.74-1.58-0.42c-0.55,0.32-0.74,1.02-0.42,1.58l5.07,8.76L23.87,58.6c0,0,0,0-0.08,0h-0.09
	l-2.98,1.72l-1.99,1.15c-0.52,0.31-1.16,0.38-1.74,0.23c-0.59-0.15-1.08-0.55-1.39-1.07l-2.29-3.97c-0.56-1.08-0.18-2.41,0.87-3.03
	l3.97-2.29l2.86,4.97c0.2,0.36,0.59,0.57,0.99,0.57c0.64,0,1.15-0.51,1.16-1.15c0-0.2-0.05-0.41-0.15-0.57l-2.97-5.12l14.41-11.88
	l0.47,0.81c0.32,0.55,1.02,0.74,1.58,0.42c0.55-0.32,0.74-1.02,0.42-1.58l-1.15-1.99c-0.17-0.29-0.46-0.5-0.79-0.55
	c-0.33-0.06-0.67,0.03-0.94,0.24L17.99,48.76l-4.89,2.83c-1.81,1.06-2.67,3.18-2.11,5.19l-1.15,0.65c-1.66,0.94-2.22,3.06-1.27,4.7
	c0.46,0.79,1.21,1.38,2.1,1.62c0.29,0.08,0.6,0.11,0.89,0.11c0.6,0,1.2-0.17,1.72-0.46l1.15-0.65c0.55,0.57,1.25,0.98,2.01,1.2
	c0.39,0.11,0.8,0.17,1.21,0.17c0.8,0,1.6-0.22,2.29-0.62l0.99-0.57l2.29,3.99c0.95,1.64,3.06,2.2,4.7,1.26
	c1.64-0.95,2.22-3.06,1.26-4.7l0,0l-2.09-3.64l17.21-6.47c0.32-0.11,0.56-0.37,0.67-0.69c0.11-0.32,0.09-0.66-0.08-0.95L39.18,41.79
	z M12.06,61.4c-0.27,0.15-0.57,0.19-0.88,0.11c-0.29-0.08-0.55-0.27-0.7-0.52c-0.15-0.27-0.19-0.57-0.11-0.88
	c0.08-0.29,0.27-0.55,0.53-0.7l0.99-0.57l1.15,1.99L12.06,61.4z M27.16,64.62c0.15,0.27,0.19,0.57,0.11,0.88
	c-0.08,0.29-0.28,0.53-0.53,0.69c-0.55,0.32-1.25,0.13-1.57-0.41l-2.29-3.99l1.91-1.09h0.09L27.16,64.62z"/>
</svg>
