<?xml version="1.0" encoding="utf-8"?>
<!-- Generator: Adobe Illustrator 26.5.0, SVG Export Plug-In . SVG Version: 6.00 Build 0)  -->
<svg version="1.1" id="Layer_1" xmlns="http://www.w3.org/2000/svg" xmlns:xlink="http://www.w3.org/1999/xlink" x="0px" y="0px"
	 width="90px" height="90px" viewBox="0 0 90 90" style="enable-background:new 0 0 90 90;" xml:space="preserve">
<style type="text/css">
	.st0{fill:#FFFFFF;}
	.st1{fill:url(#SVGID_1_);}
	.st2{fill:url(#SVGID_00000037688006420606473290000012472179076496740525_);}
	.st3{fill:url(#SVGID_00000080173864319622147290000006227735457475925404_);}
	.st4{fill:url(#SVGID_00000054224952005376928970000006466335589643784838_);}
	.st5{fill:url(#SVGID_00000134224698986818211320000015465452116608403389_);}
	.st6{fill:url(#SVGID_00000147194928128182921710000014311702575492790413_);}
	.st7{fill:url(#SVGID_00000003096074126141022750000007860894187316500370_);}
	.st8{fill:url(#SVGID_00000147905582864050252230000010134595469729304493_);}
	.st9{fill:url(#SVGID_00000127741113216623703930000004108440693880552576_);}
</style>
<path class="st0" d="M89.82,90.03H49.85c-6.28,0-11.38-5.09-11.38-11.38V12.3c0-6.16,4.99-11.15,11.15-11.15h29.04
	c6.17,0,11.16,4.99,11.16,11.15C89.82,12.3,89.82,90.03,89.82,90.03z"/>
<path d="M8.56,38.21c0.2,0.2,0.46,0.31,0.73,0.31c0.27,0,0.52-0.1,0.73-0.31c0.39-0.39,0.39-1.04,0-1.45l-2.48-2.48l2.48-2.48
	c0.39-0.39,0.39-1.04,0-1.45c-0.39-0.39-1.04-0.39-1.45,0l-3.21,3.21c-0.19,0.19-0.31,0.46-0.31,0.73s0.1,0.53,0.31,0.73L8.56,38.21
	z"/>
<path d="M18.72,34.28l-2.48,2.48c-0.39,0.39-0.39,1.04,0,1.45c0.2,0.2,0.46,0.31,0.73,0.31s0.52-0.1,0.73-0.31l3.21-3.21
	c0.39-0.39,0.39-1.04,0-1.45l-3.21-3.21c-0.39-0.39-1.04-0.39-1.45,0c-0.39,0.39-0.39,1.04,0,1.45L18.72,34.28z"/>
<path d="M11.59,38.44c0.13,0.05,0.25,0.08,0.37,0.08c0.41,0,0.79-0.24,0.95-0.65l2.52-6.43c0.2-0.52-0.05-1.12-0.57-1.32
	c-0.52-0.2-1.12,0.05-1.32,0.57l-2.52,6.43C10.8,37.64,11.07,38.24,11.59,38.44z"/>
<linearGradient id="SVGID_1_" gradientUnits="userSpaceOnUse" x1="5.621" y1="48.4995" x2="14.5713" y2="48.4995" gradientTransform="matrix(1 0 0 -1 0 92)">
	<stop  offset="0" style="stop-color:#4856CE"/>
	<stop  offset="0.4609" style="stop-color:#D269AF"/>
	<stop  offset="1" style="stop-color:#FBC774"/>
</linearGradient>
<path class="st1" d="M6.65,44.53h6.9c0.56,0,1.02-0.46,1.02-1.03c0-0.56-0.46-1.02-1.02-1.02h-6.9c-0.56,0-1.02,0.46-1.02,1.02
	C5.62,44.07,6.08,44.53,6.65,44.53z"/>
<linearGradient id="SVGID_00000154387535719893779310000011934775735201109137_" gradientUnits="userSpaceOnUse" x1="16.2973" y1="48.4995" x2="30.4754" y2="48.4995" gradientTransform="matrix(1 0 0 -1 0 92)">
	<stop  offset="0" style="stop-color:#4856CE"/>
	<stop  offset="0.4609" style="stop-color:#D269AF"/>
	<stop  offset="1" style="stop-color:#FBC774"/>
</linearGradient>
<path style="fill:url(#SVGID_00000154387535719893779310000011934775735201109137_);" d="M29.44,42.48H17.32
	c-0.56,0-1.02,0.46-1.02,1.02s0.46,1.03,1.02,1.03h12.13c0.56,0,1.03-0.46,1.03-1.03C30.46,42.93,30,42.48,29.44,42.48z"/>
<linearGradient id="SVGID_00000070813720740830065830000006744630178735188402_" gradientUnits="userSpaceOnUse" x1="5.621" y1="44.1723" x2="10.6097" y2="44.1723" gradientTransform="matrix(1 0 0 -1 0 92)">
	<stop  offset="0" style="stop-color:#4856CE"/>
	<stop  offset="0.4609" style="stop-color:#D269AF"/>
	<stop  offset="1" style="stop-color:#FBC774"/>
</linearGradient>
<path style="fill:url(#SVGID_00000070813720740830065830000006744630178735188402_);" d="M6.65,48.85h2.94
	c0.56,0,1.02-0.46,1.02-1.03c0-0.56-0.46-1.02-1.02-1.02H6.65c-0.56,0-1.02,0.46-1.02,1.02C5.62,48.39,6.08,48.85,6.65,48.85z"/>
<linearGradient id="SVGID_00000127734091927224746310000008490141697507414409_" gradientUnits="userSpaceOnUse" x1="24.6718" y1="44.1723" x2="28.5112" y2="44.1723" gradientTransform="matrix(1 0 0 -1 0 92)">
	<stop  offset="0" style="stop-color:#4856CE"/>
	<stop  offset="0.4609" style="stop-color:#D269AF"/>
	<stop  offset="1" style="stop-color:#FBC774"/>
</linearGradient>
<path style="fill:url(#SVGID_00000127734091927224746310000008490141697507414409_);" d="M25.69,46.8c-0.56,0-1.02,0.46-1.02,1.02
	s0.46,1.03,1.02,1.03h1.79c0.56,0,1.03-0.46,1.03-1.03c0-0.56-0.46-1.02-1.03-1.02H25.69z"/>
<linearGradient id="SVGID_00000123434676044676873470000005695309217807136679_" gradientUnits="userSpaceOnUse" x1="12.1558" y1="44.1723" x2="22.9983" y2="44.1723" gradientTransform="matrix(1 0 0 -1 0 92)">
	<stop  offset="0" style="stop-color:#4856CE"/>
	<stop  offset="0.4609" style="stop-color:#D269AF"/>
	<stop  offset="1" style="stop-color:#FBC774"/>
</linearGradient>
<path style="fill:url(#SVGID_00000123434676044676873470000005695309217807136679_);" d="M23,47.82c0-0.56-0.46-1.02-1.02-1.02
	h-8.79c-0.56,0-1.02,0.46-1.02,1.02s0.46,1.03,1.02,1.03h8.79C22.53,48.85,23,48.39,23,47.82z"/>
<linearGradient id="SVGID_00000026851104100789508560000003022332024436918914_" gradientUnits="userSpaceOnUse" x1="29.7118" y1="44.1723" x2="35.1143" y2="44.1723" gradientTransform="matrix(1 0 0 -1 0 92)">
	<stop  offset="0" style="stop-color:#4856CE"/>
	<stop  offset="0.4609" style="stop-color:#D269AF"/>
	<stop  offset="1" style="stop-color:#FBC774"/>
</linearGradient>
<path style="fill:url(#SVGID_00000026851104100789508560000003022332024436918914_);" d="M29.71,47.82c0,0.56,0.46,1.03,1.02,1.03
	h3.35c0.56,0,1.03-0.46,1.03-1.03c0-0.56-0.46-1.02-1.03-1.02h-3.35C30.17,46.8,29.71,47.26,29.71,47.82z"/>
<path d="M24.12,35.11h3.54c0.56,0,1.03-0.46,1.03-1.03c0-0.56-0.46-1.02-1.03-1.02h-3.54c-0.56,0-1.03,0.46-1.03,1.02
	C23.11,34.65,23.56,35.11,24.12,35.11z"/>
<path d="M31.63,35.11h21.59c0.56,0,1.02-0.46,1.02-1.03c0-0.56-0.46-1.02-1.02-1.02H31.63c-0.56,0-1.03,0.46-1.03,1.02
	C30.6,34.65,31.06,35.11,31.63,35.11z"/>
<path d="M49.94,37.56h-8.74c-0.56,0-1.02,0.46-1.02,1.03c0,0.56,0.46,1.02,1.02,1.02h8.74c0.56,0,1.02-0.46,1.02-1.02
	C50.95,38.02,50.5,37.56,49.94,37.56z"/>
<path d="M37.91,37.56h-3c-0.56,0-1.02,0.46-1.02,1.03c0,0.56,0.46,1.02,1.02,1.02h3c0.56,0,1.02-0.46,1.02-1.02
	C38.94,38.02,38.48,37.56,37.91,37.56z"/>
<path d="M24.12,39.61h7.36c0.56,0,1.02-0.46,1.02-1.02s-0.46-1.03-1.02-1.03h-7.36c-0.56,0-1.03,0.46-1.03,1.03
	C23.11,39.15,23.56,39.61,24.12,39.61z"/>
<linearGradient id="SVGID_00000076570498885968083910000005397034558394317724_" gradientUnits="userSpaceOnUse" x1="14.0573" y1="39.9023" x2="23.0048" y2="39.9023" gradientTransform="matrix(1 0 0 -1 0 92)">
	<stop  offset="0" style="stop-color:#4856CE"/>
	<stop  offset="0.4609" style="stop-color:#D269AF"/>
	<stop  offset="1" style="stop-color:#FBC774"/>
</linearGradient>
<path style="fill:url(#SVGID_00000076570498885968083910000005397034558394317724_);" d="M21.99,51.08h-6.9
	c-0.56,0-1.03,0.46-1.03,1.02c0,0.56,0.46,1.02,1.03,1.02h6.9c0.56,0,1.02-0.46,1.02-1.02C23.02,51.54,22.55,51.08,21.99,51.08z"/>
<linearGradient id="SVGID_00000056392602707869329210000004930385251917208725_" gradientUnits="userSpaceOnUse" x1="5.621" y1="39.9023" x2="12.9646" y2="39.9023" gradientTransform="matrix(1 0 0 -1 0 92)">
	<stop  offset="0" style="stop-color:#4856CE"/>
	<stop  offset="0.4609" style="stop-color:#D269AF"/>
	<stop  offset="1" style="stop-color:#FBC774"/>
</linearGradient>
<path style="fill:url(#SVGID_00000056392602707869329210000004930385251917208725_);" d="M11.94,51.08H6.65
	c-0.56,0-1.02,0.46-1.02,1.02c0,0.56,0.46,1.02,1.02,1.02h5.31c0.56,0,1.02-0.46,1.02-1.02C12.98,51.54,12.52,51.08,11.94,51.08z"/>
<linearGradient id="SVGID_00000181801009916654076050000013467550831605928869_" gradientUnits="userSpaceOnUse" x1="24.4682" y1="39.9023" x2="35.5324" y2="39.9023" gradientTransform="matrix(1 0 0 -1 0 92)">
	<stop  offset="0" style="stop-color:#4856CE"/>
	<stop  offset="0.4609" style="stop-color:#D269AF"/>
	<stop  offset="1" style="stop-color:#FBC774"/>
</linearGradient>
<path style="fill:url(#SVGID_00000181801009916654076050000013467550831605928869_);" d="M34.5,51.08h-9.01
	c-0.56,0-1.02,0.46-1.02,1.02c0,0.56,0.46,1.02,1.02,1.02h9.01c0.56,0,1.02-0.46,1.02-1.02C35.52,51.54,35.06,51.08,34.5,51.08z"/>
<path d="M46.69,45.82h-4.93c-0.56,0-1.02,0.46-1.02,1.02c0,0.56,0.46,1.03,1.02,1.03h4.93c0.56,0,1.02-0.46,1.02-1.03
	C47.71,46.28,47.25,45.82,46.69,45.82z"/>
<path d="M55.24,47.87h6.96c0.56,0,1.03-0.46,1.03-1.03c0-0.56-0.46-1.02-1.03-1.02h-6.96c-0.56,0-1.02,0.46-1.02,1.02
	C54.22,47.41,54.68,47.87,55.24,47.87z"/>
<path d="M51.77,45.82h-1.59c-0.56,0-1.03,0.46-1.03,1.02c0,0.56,0.46,1.03,1.03,1.03h1.59c0.56,0,1.02-0.46,1.02-1.03
	C52.79,46.28,52.33,45.82,51.77,45.82z"/>
<path d="M41.76,59.03h4.93c0.56,0,1.02-0.46,1.02-1.02S47.25,57,46.69,57h-4.93c-0.56,0-1.02,0.46-1.02,1.02
	C40.73,58.58,41.19,59.03,41.76,59.03z"/>
<path d="M55.24,59.03h6.96c0.56,0,1.03-0.46,1.03-1.02S62.78,57,62.2,57h-6.96c-0.56,0-1.02,0.46-1.02,1.02
	C54.22,58.58,54.68,59.03,55.24,59.03z"/>
<path d="M50.16,59.03h1.59c0.56,0,1.03-0.46,1.03-1.02S52.33,57,51.76,57h-1.59c-0.56,0-1.02,0.46-1.02,1.02
	C49.15,58.58,49.6,59.03,50.16,59.03z"/>
<path d="M46.69,68.15h-4.93c-0.56,0-1.02,0.46-1.02,1.02s0.46,1.02,1.02,1.02h4.93c0.56,0,1.02-0.46,1.02-1.02
	C47.71,68.61,47.25,68.15,46.69,68.15z"/>
<path d="M62.2,68.15h-6.96c-0.56,0-1.02,0.46-1.02,1.02s0.46,1.02,1.02,1.02h6.96c0.56,0,1.03-0.46,1.03-1.02
	C63.22,68.61,62.76,68.15,62.2,68.15z"/>
<path d="M51.77,68.15h-1.59c-0.56,0-1.03,0.46-1.03,1.02s0.46,1.02,1.03,1.02h1.59c0.56,0,1.02-0.46,1.02-1.02
	C52.79,68.61,52.33,68.15,51.77,68.15z"/>
<path d="M65.98,12.71H5c-2.48,0-4.51,2.02-4.51,4.51v49.57c0,2.48,2.02,4.51,4.51,4.51h3.86c0.56,0,1.02-0.46,1.02-1.02
	s-0.46-1.02-1.02-1.02H5c-1.36,0-2.46-1.11-2.46-2.46v-3.88h37.33v1.77h-0.81c-1.11,0-2.01,0.9-2.01,2.01v2.57H15.09
	c-0.56,0-1.02,0.46-1.02,1.02c0,0.56,0.46,1.02,1.02,1.02h9.85v3.68h-3.09c-2.06,0-3.74,1.68-3.74,3.74v2.21
	c0,0.94,0.76,1.71,1.71,1.71h31.3c0.94,0,1.71-0.76,1.71-1.71v-2.21c0-2.06-1.68-3.74-3.74-3.74h-3.09v-1.3h18.94
	c1.11,0,2.01-0.9,2.01-2.01v-0.48c2-0.46,3.49-2.25,3.49-4.39l0.08-49.57C70.49,14.73,68.47,12.71,65.98,12.71z M39.09,60.46v-4.91
	h25.79v4.91H39.09z M41.92,53.51v-2.15h20.13v2.15H41.92z M62.05,62.51v2.15H41.92v-2.15H62.05z M26.99,71.3h10.05v0.37
	c0,1.11,0.9,2.01,2.01,2.01h4.87v1.3H26.99V71.3z M49.07,77.02c0.93,0,1.69,0.76,1.69,1.69v1.87H20.15v-1.87
	c0-0.93,0.76-1.69,1.69-1.69H49.07z M64.88,71.63H39.09v-4.91h25.79V71.63z M68.36,66.78c0,0.99-0.59,1.85-1.44,2.24v-2.34
	c0-1.11-0.9-2.01-2.01-2.01H64.1V62.9h4.26C68.36,62.9,68.36,66.78,68.36,66.78z M68.36,60.85h-1.48c0.03-0.11,0.04-5.33,0.04-5.33
	c0-1.11-0.9-2.01-2.01-2.01H64.1v-2.15h0.81c1.11,0,2.01-0.9,2.01-2.01v-4.98c0-1.11-0.9-2.01-2.01-2.01h-5.79
	c-0.56,0-1.02,0.46-1.02,1.03c0,0.56,0.46,1.02,1.02,1.02h5.75v4.91H39.09v-4.91h13.66c0.56,0,1.02-0.46,1.02-1.02
	s-0.46-1.03-1.02-1.03H39.05c-1.11,0-2.01,0.9-2.01,2.01v4.98c0,1.11,0.9,2.01,2.01,2.01h0.81v2.15h-0.81
	c-1.11,0-2.01,0.9-2.01,2.01c0,0,0.01,5.22,0.04,5.33H2.54V26.64h65.83V60.85z M68.36,24.59H2.62v-7.38c0-1.36,1.11-2.46,2.46-2.46
	H65.9c1.36,0,2.46,1.11,2.46,2.46v7.38H68.36z"/>
<path d="M8.05,16.64c-1.65,0-3,1.35-3,3s1.35,3.02,3,3.02s3-1.35,3-3S9.7,16.64,8.05,16.64z M8.05,20.61
	c-0.52,0-0.95-0.43-0.95-0.95c0-0.52,0.43-0.95,0.95-0.95C8.58,18.7,9,19.13,9,19.66C9,20.18,8.57,20.61,8.05,20.61z"/>
<path d="M15.7,16.64c-1.65,0-3,1.35-3,3s1.35,3,3,3s3-1.35,3-3S17.35,16.64,15.7,16.64z M15.7,20.61c-0.53,0-0.95-0.43-0.95-0.95
	c0-0.52,0.43-0.95,0.95-0.95s0.95,0.43,0.95,0.95C16.65,20.18,16.23,20.61,15.7,20.61z"/>
<path d="M23.36,16.64c-1.65,0-3,1.35-3,3s1.35,3,3,3s3-1.35,3-3S25.02,16.64,23.36,16.64z M23.36,20.61c-0.52,0-0.95-0.43-0.95-0.95
	c0-0.52,0.43-0.95,0.95-0.95c0.53,0,0.95,0.43,0.95,0.95C24.32,20.18,23.88,20.61,23.36,20.61z"/>
</svg>
