<?xml version="1.0" encoding="utf-8"?>
<!-- Generator: Adobe Illustrator 26.5.0, SVG Export Plug-In . SVG Version: 6.00 Build 0)  -->
<svg version="1.1" id="outline" xmlns="http://www.w3.org/2000/svg" xmlns:xlink="http://www.w3.org/1999/xlink" x="0px" y="0px"
	 width="90px" height="90px" viewBox="0 0 90 90" style="enable-background:new 0 0 90 90;" xml:space="preserve">
<style type="text/css">
	.st0{fill:#FFFFFF;}
	.st1{fill:url(#SVGID_1_);}
	.st2{fill:url(#SVGID_00000134956112296042490540000006031118850427886250_);}
	.st3{fill:url(#SVGID_00000143597452851206704760000011731130044680619189_);}
</style>
<path class="st0" d="M90,88.88H50.03c-6.28,0-11.38-5.09-11.38-11.38V11.15C38.66,4.99,43.65,0,49.81,0h29.04
	C85.01,0,90,4.99,90,11.15V88.88z"/>
<linearGradient id="SVGID_1_" gradientUnits="userSpaceOnUse" x1="19.1194" y1="952.4531" x2="28.444" y2="952.4531" gradientTransform="matrix(1 0 0 1 0 -908)">
	<stop  offset="0" style="stop-color:#4856CE"/>
	<stop  offset="0.4609" style="stop-color:#D269AF"/>
	<stop  offset="1" style="stop-color:#FBC774"/>
</linearGradient>
<path class="st1" d="M28.45,39.8v9.33c0,0.65-0.51,1.16-1.16,1.16c-0.41,0-0.79-0.22-1.01-0.59l0,0l-4.82-6.41v5.83
	c0,0.65-0.51,1.16-1.16,1.16s-1.16-0.51-1.16-1.16v-9.33c0-0.65,0.51-1.16,1.16-1.16c0.41,0,0.79,0.22,1.01,0.59l0,0l4.82,6.41V39.8
	c0-0.65,0.51-1.16,1.16-1.16C27.91,38.63,28.45,39.15,28.45,39.8z"/>
<linearGradient id="SVGID_00000017490044420593569610000016275218369276785024_" gradientUnits="userSpaceOnUse" x1="30.7749" y1="952.4595" x2="37.7684" y2="952.4595" gradientTransform="matrix(1 0 0 1 0 -908)">
	<stop  offset="0" style="stop-color:#4856CE"/>
	<stop  offset="0.4609" style="stop-color:#D269AF"/>
	<stop  offset="1" style="stop-color:#FBC774"/>
</linearGradient>
<path style="fill:url(#SVGID_00000017490044420593569610000016275218369276785024_);" d="M36.6,40.95c0.65,0,1.16-0.51,1.16-1.16
	s-0.51-1.16-1.16-1.16h-4.66c-0.65,0-1.16,0.51-1.16,1.16v9.33c0,0.65,0.51,1.16,1.16,1.16s1.16-0.51,1.16-1.16v-3.5h3.5
	c0.65,0,1.16-0.51,1.16-1.16c0-0.65-0.51-1.16-1.16-1.16h-3.5v-2.34C33.11,40.95,36.6,40.95,36.6,40.95z"/>
<linearGradient id="SVGID_00000093155541607305904640000013418089794333053103_" gradientUnits="userSpaceOnUse" x1="40.0899" y1="952.4595" x2="47.0832" y2="952.4595" gradientTransform="matrix(1 0 0 1 0 -908)">
	<stop  offset="0" style="stop-color:#4856CE"/>
	<stop  offset="0.4609" style="stop-color:#D269AF"/>
	<stop  offset="1" style="stop-color:#FBC774"/>
</linearGradient>
<path style="fill:url(#SVGID_00000093155541607305904640000013418089794333053103_);" d="M43.59,50.28c0.65,0,1.16-0.51,1.16-1.16
	v-8.17h1.16c0.65,0,1.16-0.51,1.16-1.16s-0.51-1.16-1.16-1.16h-4.66c-0.65,0-1.16,0.51-1.16,1.16s0.51,1.16,1.16,1.16h1.16v8.17
	C42.43,49.77,42.95,50.28,43.59,50.28z"/>
<rect x="0.47" y="26.35" width="4.66" height="4.66"/>
<rect x="59.92" y="65.99" width="4.66" height="4.66"/>
<path d="M61.08,46.16c-2.11,0-3.97,1.44-4.5,3.5h-4.82v-9.33h4.82c0.65,2.51,3.19,3.98,5.67,3.36c2.51-0.65,3.98-3.19,3.36-5.67
	c-0.65-2.51-3.19-3.98-5.67-3.36c-1.64,0.43-2.93,1.7-3.36,3.36h-4.82v-1.09c-0.01-2.1-1.14-4.03-2.99-5.06l-4.02-2.23v-5.15
	l2.34-2.34c2.25,1.31,5.15,0.56,6.45-1.7c1.31-2.25,0.56-5.15-1.7-6.45c-2.26-1.31-5.15-0.56-6.45,1.7
	c-0.87,1.49-0.85,3.33,0.03,4.81l-2.66,2.65c-0.22,0.22-0.36,0.53-0.34,0.85v4.34l-6.54-3.61c-0.51-0.28-1.06-0.47-1.62-0.59v-4.96
	c2.51-0.65,3.98-3.19,3.36-5.67c-0.65-2.51-3.19-3.98-5.67-3.36c-2.51,0.65-3.98,3.19-3.36,5.67c0.43,1.64,1.7,2.93,3.36,3.36v4.96
	c-0.57,0.11-1.12,0.31-1.62,0.59l-6.54,3.61v-4.33c0-0.31-0.11-0.6-0.34-0.83l-2.66-2.66c1.32-2.25,0.57-5.13-1.67-6.48
	s-5.13-0.57-6.48,1.67c-1.32,2.25-0.57,5.13,1.67,6.48c1.49,0.87,3.32,0.87,4.8,0l2.34,2.34v5.15l-3.33,1.86
	c-0.56,0.32-0.75,1.03-0.43,1.6c0.32,0.56,1.03,0.75,1.6,0.43l12.2-6.76c1.04-0.56,2.29-0.56,3.33,0l12.82,7.12
	c1.09,0.6,1.77,1.76,1.78,3v16.14c-0.01,1.25-0.67,2.39-1.77,3.02l-12.82,7.12c-1.04,0.56-2.29,0.56-3.33,0l-12.82-7.12
	c-1.13-0.59-1.86-1.76-1.88-3.02V36.92c0-0.18,0.01-0.36,0.06-0.53c0.15-0.65-0.27-1.28-0.92-1.42c-0.65-0.15-1.28,0.27-1.42,0.92
	l0,0c-0.08,0.34-0.1,0.69-0.1,1.04v1.09H9.63c-0.65-2.51-3.19-3.98-5.67-3.36c-2.51,0.65-3.98,3.19-3.36,5.67
	c0.65,2.51,3.19,3.98,5.67,3.36c1.64-0.43,2.93-1.7,3.36-3.36h4.82v9.33H9.63c-0.65-2.49-3.19-3.98-5.67-3.35
	c-2.51,0.65-3.98,3.19-3.36,5.67c0.65,2.51,3.19,3.98,5.67,3.36c1.64-0.43,2.93-1.7,3.36-3.36h4.82v1.09
	c0.01,2.1,1.14,4.03,2.99,5.06l4.02,2.23v5.15l-2.34,2.34c-2.25-1.31-5.15-0.56-6.45,1.7c-1.31,2.25-0.56,5.15,1.7,6.45
	c2.25,1.31,5.15,0.56,6.45-1.7c0.87-1.49,0.85-3.33-0.03-4.81l2.66-2.65c0.22-0.22,0.36-0.53,0.34-0.85v-4.34l6.54,3.61
	c0.51,0.28,1.06,0.47,1.62,0.59v4.96c-2.51,0.65-3.98,3.19-3.36,5.67c0.64,2.48,3.19,3.98,5.67,3.36c2.51-0.65,3.98-3.19,3.36-5.67
	c-0.43-1.64-1.7-2.93-3.36-3.36v-4.96c0.57-0.11,1.12-0.31,1.62-0.59l6.55-3.63v4.34c0,0.31,0.11,0.6,0.34,0.83l2.66,2.66
	c-1.32,2.25-0.57,5.13,1.67,6.48c2.25,1.32,5.13,0.57,6.48-1.67c1.32-2.25,0.57-5.13-1.67-6.48c-1.49-0.87-3.32-0.87-4.8,0
	l-2.34-2.34v-5.13l4.02-2.23c1.82-1.03,2.95-2.95,2.98-5.05v-1.09h4.82c0.65,2.51,3.19,3.98,5.67,3.36
	c2.51-0.65,3.98-3.19,3.36-5.67C65.08,47.61,63.22,46.16,61.08,46.16z M61.08,36.83c1.3,0,2.34,1.04,2.34,2.34s-1.04,2.34-2.34,2.34
	s-2.34-1.04-2.34-2.34S59.78,36.83,61.08,36.83z M49.42,15.87c1.3,0,2.33,1.04,2.33,2.34c0,1.3-1.04,2.33-2.34,2.33
	c-0.62,0-1.21-0.25-1.63-0.67l0,0c-0.92-0.92-0.93-2.38-0.01-3.29C48.21,16.12,48.8,15.87,49.42,15.87z M14.46,18.19
	c0-1.3,1.04-2.33,2.34-2.33s2.33,1.04,2.33,2.34c0,0.62-0.25,1.21-0.67,1.63l0,0c-0.92,0.92-2.38,0.93-3.29,0.01
	C14.71,19.42,14.46,18.81,14.46,18.19z M30.76,14.68c0-1.3,1.04-2.34,2.34-2.34s2.34,1.04,2.34,2.34s-1.04,2.34-2.34,2.34
	C31.82,17.02,30.76,15.98,30.76,14.68z M5.13,41.5c-1.3,0-2.34-1.04-2.34-2.34c0-1.3,1.04-2.34,2.34-2.34s2.34,1.04,2.34,2.34
	C7.46,40.46,6.41,41.5,5.13,41.5z M5.13,53.17c-1.3,0-2.34-1.04-2.34-2.34s1.04-2.34,2.34-2.34s2.34,1.04,2.34,2.34
	C7.46,52.12,6.41,53.17,5.13,53.17z M16.78,74.13c-1.3,0-2.33-1.04-2.33-2.34s1.04-2.33,2.34-2.33c0.62,0,1.21,0.25,1.63,0.67l0,0
	c0.92,0.92,0.93,2.38,0.01,3.29C18,73.88,17.42,74.13,16.78,74.13z M35.43,75.32c0,1.3-1.04,2.34-2.34,2.34s-2.34-1.04-2.34-2.34
	c0-1.3,1.04-2.34,2.34-2.34C34.39,72.98,35.43,74.02,35.43,75.32z M51.76,71.81c0,1.3-1.04,2.33-2.34,2.33
	c-1.3,0-2.33-1.04-2.33-2.34c0-0.62,0.25-1.21,0.67-1.63l0,0c0.92-0.92,2.38-0.93,3.29-0.01C51.5,70.58,51.76,71.19,51.76,71.81z
	 M61.08,53.17c-1.3,0-2.34-1.04-2.34-2.34s1.04-2.34,2.34-2.34s2.34,1.04,2.34,2.34C63.41,52.12,62.37,53.17,61.08,53.17z"/>
</svg>
