<?xml version="1.0" encoding="utf-8"?>
<!-- Generator: Adobe Illustrator 26.5.0, SVG Export Plug-In . SVG Version: 6.00 Build 0)  -->
<svg version="1.1" id="Layer_1" xmlns="http://www.w3.org/2000/svg" xmlns:xlink="http://www.w3.org/1999/xlink" x="0px" y="0px"
	 width="90px" height="90px" viewBox="0 0 90 90" style="enable-background:new 0 0 90 90;" xml:space="preserve">
<style type="text/css">
	.st0{fill:#FFFFFF;}
	.st1{fill:url(#SVGID_1_);}
	.st2{fill:url(#SVGID_00000085961636784237362760000009569681317048373647_);}
	.st3{fill:url(#SVGID_00000093856153064709427940000017182340952108668564_);}
	.st4{fill:url(#SVGID_00000000205412626233659970000000665887416952043437_);}
	.st5{fill:url(#SVGID_00000086675589307487569440000013632600651098760069_);}
	.st6{fill:url(#SVGID_00000041994513174281526310000016910306416371036562_);}
</style>
<path class="st0" d="M89.71,89.44H49.74c-6.28,0-11.38-5.09-11.38-11.38V11.71c0-6.16,4.99-11.15,11.15-11.15h29.04
	c6.17,0,11.16,4.99,11.16,11.15C89.71,11.71,89.71,89.44,89.71,89.44z"/>
<path d="M60,72.81c0.62,0,1.13-0.51,1.13-1.13V54.5c5.47-1.25,8.89-6.69,7.65-12.16c-1.25-5.47-6.69-8.89-12.16-7.65
	c-4.62,1.06-7.9,5.17-7.9,9.9c0.01,0.57,0.06,1.15,0.17,1.72l-2.43,1.74V26.54c0-0.62-0.51-1.13-1.13-1.13H27.41l-5.9-11.79
	c-0.28-0.56-0.97-0.78-1.51-0.5c-0.22,0.1-0.38,0.28-0.5,0.5l-2.89,5.76c-0.28,0.56-0.05,1.23,0.51,1.51
	c0.56,0.28,1.23,0.05,1.51-0.51l1.87-3.74l4.38,8.75h-2.12c-0.62,0-1.13,0.51-1.13,1.13v4.52h-8.33l2.06-4.13
	c0.28-0.56,0.05-1.23-0.51-1.51c-0.56-0.28-1.23-0.05-1.51,0.51l-2.85,5.78c-0.28,0.56-0.05,1.23,0.5,1.51
	c0.15,0.08,0.33,0.11,0.51,0.11h10.15v21.51l-6.12-4.36c-0.45-0.32-1.07-0.28-1.45,0.11l-6.77,6.77c-0.22,0.22-0.33,0.5-0.33,0.8
	v16.93H1.31c-0.62,0-1.13,0.51-1.13,1.13c0,0.62,0.51,1.13,1.13,1.13h65.46c0.62,0,1.13-0.51,1.13-1.13c0-0.62-0.51-1.13-1.13-1.13
	H46.47V50.81l6.65-4.75l5.76,5.75v19.85C58.87,72.3,59.38,72.81,60,72.81z M21.63,75.06H9.22V58.6l5.76-5.75l6.65,4.75V75.06z
	 M37.43,75.06h-6.77v-4.52c0-1.25,1.01-2.25,2.25-2.25h2.25c1.25,0,2.25,1.01,2.25,2.25v4.52H37.43z M44.2,75.06h-4.52v-4.52
	c0-2.49-2.02-4.52-4.52-4.52h-2.25c-2.49,0-4.52,2.02-4.52,4.52v4.52h-4.52V27.67H44.2C44.2,27.67,44.2,75.06,44.2,75.06z
	 M54.04,43.79c-0.39-0.39-1.01-0.43-1.45-0.11L51,44.81c0-0.06,0-0.15,0-0.22c0-4.36,3.54-7.9,7.9-7.9s7.9,3.54,7.9,7.9
	c0,3.5-2.29,6.56-5.65,7.57v-0.8c0-0.31-0.11-0.59-0.33-0.8L54.04,43.79z"/>
<linearGradient id="SVGID_1_" gradientUnits="userSpaceOnUse" x1="26.1493" y1="55.3089" x2="31.7924" y2="55.3089" gradientTransform="matrix(1 0 0 -1 0 92)">
	<stop  offset="0" style="stop-color:#4856CE"/>
	<stop  offset="0.4609" style="stop-color:#D269AF"/>
	<stop  offset="1" style="stop-color:#FBC774"/>
</linearGradient>
<path class="st1" d="M27.28,37.82h3.38c0.62,0,1.13-0.51,1.13-1.13s-0.51-1.13-1.13-1.13h-3.38c-0.62,0-1.13,0.51-1.13,1.13
	S26.66,37.82,27.28,37.82z"/>
<linearGradient id="SVGID_00000050660889225112240430000011838308841212179854_" gradientUnits="userSpaceOnUse" x1="36.302" y1="55.3089" x2="41.9451" y2="55.3089" gradientTransform="matrix(1 0 0 -1 0 92)">
	<stop  offset="0" style="stop-color:#4856CE"/>
	<stop  offset="0.4609" style="stop-color:#D269AF"/>
	<stop  offset="1" style="stop-color:#FBC774"/>
</linearGradient>
<path style="fill:url(#SVGID_00000050660889225112240430000011838308841212179854_);" d="M37.43,37.82h3.38
	c0.62,0,1.13-0.51,1.13-1.13s-0.51-1.13-1.13-1.13h-3.38c-0.62,0-1.13,0.51-1.13,1.13S36.81,37.82,37.43,37.82z"/>
<linearGradient id="SVGID_00000086688047901201189090000001503830257258183047_" gradientUnits="userSpaceOnUse" x1="26.1493" y1="48.5404" x2="31.7924" y2="48.5404" gradientTransform="matrix(1 0 0 -1 0 92)">
	<stop  offset="0" style="stop-color:#4856CE"/>
	<stop  offset="0.4609" style="stop-color:#D269AF"/>
	<stop  offset="1" style="stop-color:#FBC774"/>
</linearGradient>
<path style="fill:url(#SVGID_00000086688047901201189090000001503830257258183047_);" d="M27.28,44.59h3.38
	c0.62,0,1.13-0.51,1.13-1.13s-0.51-1.13-1.13-1.13h-3.38c-0.62,0-1.13,0.51-1.13,1.13S26.66,44.59,27.28,44.59z"/>
<linearGradient id="SVGID_00000178887112222905760200000004431061117518411660_" gradientUnits="userSpaceOnUse" x1="36.302" y1="48.5404" x2="41.9451" y2="48.5404" gradientTransform="matrix(1 0 0 -1 0 92)">
	<stop  offset="0" style="stop-color:#4856CE"/>
	<stop  offset="0.4609" style="stop-color:#D269AF"/>
	<stop  offset="1" style="stop-color:#FBC774"/>
</linearGradient>
<path style="fill:url(#SVGID_00000178887112222905760200000004431061117518411660_);" d="M37.43,44.59h3.38
	c0.62,0,1.13-0.51,1.13-1.13s-0.51-1.13-1.13-1.13h-3.38c-0.62,0-1.13,0.51-1.13,1.13S36.81,44.59,37.43,44.59z"/>
<path d="M53.24,52.49h-3.38c-0.62,0-1.13,0.51-1.13,1.13c0,0.62,0.51,1.13,1.13,1.13h3.38c0.62,0,1.13-0.51,1.13-1.13
	C54.37,53,53.86,52.49,53.24,52.49z"/>
<path d="M53.24,57.01h-3.38c-0.62,0-1.13,0.51-1.13,1.13s0.51,1.13,1.13,1.13h3.38c0.62,0,1.13-0.51,1.13-1.13
	S53.86,57.01,53.24,57.01z"/>
<path d="M13.73,60.39c0,0.62,0.51,1.13,1.13,1.13h3.38c0.62,0,1.13-0.51,1.13-1.13c0-0.62-0.51-1.13-1.13-1.13h-3.38
	C14.24,59.27,13.73,59.77,13.73,60.39z"/>
<path d="M18.25,63.78h-3.38c-0.62,0-1.13,0.51-1.13,1.13s0.51,1.13,1.13,1.13h3.38c0.62,0,1.13-0.51,1.13-1.13
	S18.87,63.78,18.25,63.78z"/>
<linearGradient id="SVGID_00000000917937615113832450000000440149736805653694_" gradientUnits="userSpaceOnUse" x1="45.3346" y1="79.0111" x2="56.6209" y2="79.0111" gradientTransform="matrix(1 0 0 -1 0 92)">
	<stop  offset="0" style="stop-color:#4856CE"/>
	<stop  offset="0.4609" style="stop-color:#D269AF"/>
	<stop  offset="1" style="stop-color:#FBC774"/>
</linearGradient>
<path style="fill:url(#SVGID_00000000917937615113832450000000440149736805653694_);" d="M56.62,12.99c0-3.12-2.53-5.65-5.65-5.65
	c-3.12,0-5.65,2.53-5.65,5.65s2.53,5.65,5.65,5.65C54.09,18.64,56.62,16.11,56.62,12.99z M50.98,16.39c-1.87,0-3.38-1.51-3.38-3.38
	s1.51-3.38,3.38-3.38c1.87,0,3.38,1.51,3.38,3.38C54.37,14.86,52.84,16.39,50.98,16.39z"/>
<path d="M9.79,46.86c2.18,0,3.94-1.77,3.94-3.94s-1.77-3.94-3.94-3.94s-3.94,1.77-3.94,3.94S7.6,46.86,9.79,46.86z M9.79,41.21
	c0.93,0,1.69,0.76,1.69,1.69s-0.76,1.69-1.69,1.69S8.1,43.83,8.1,42.9S8.85,41.21,9.79,41.21z"/>
<path d="M6.96,12.99c0-0.62-0.51-1.13-1.13-1.13H4.7c-0.62,0-1.13,0.51-1.13,1.13c0,0.62,0.51,1.13,1.13,1.13h1.13
	C6.45,14.12,6.96,13.61,6.96,12.99z"/>
<linearGradient id="SVGID_00000021096686313032490970000002303090900472250262_" gradientUnits="userSpaceOnUse" x1="54.3637" y1="66.5938" x2="57.7494" y2="66.5938" gradientTransform="matrix(1 0 0 -1 0 92)">
	<stop  offset="0" style="stop-color:#4856CE"/>
	<stop  offset="0.4609" style="stop-color:#D269AF"/>
	<stop  offset="1" style="stop-color:#FBC774"/>
</linearGradient>
<path style="fill:url(#SVGID_00000021096686313032490970000002303090900472250262_);" d="M55.49,26.54h1.13
	c0.62,0,1.13-0.51,1.13-1.13s-0.51-1.13-1.13-1.13h-1.13c-0.62,0-1.13,0.51-1.13,1.13C54.37,26.03,54.86,26.54,55.49,26.54z"/>
</svg>
