<?xml version="1.0" encoding="utf-8"?>
<!-- Generator: Adobe Illustrator 26.5.0, SVG Export Plug-In . SVG Version: 6.00 Build 0)  -->
<svg version="1.1" id="Layer_1" xmlns="http://www.w3.org/2000/svg" xmlns:xlink="http://www.w3.org/1999/xlink" x="0px" y="0px"
	 width="90px" height="90px" viewBox="0 0 90 90" style="enable-background:new 0 0 90 90;" xml:space="preserve">
<style type="text/css">
	.st0{fill:#FFFFFF;}
	.st1{fill:url(#SVGID_1_);}
	.st2{fill:url(#SVGID_00000098184170350708680390000011066275887992416176_);}
	.st3{fill:url(#SVGID_00000056429514163386923740000002087847139900907954_);}
	.st4{fill:url(#SVGID_00000099654850850992838510000013664651080375141270_);}
	.st5{fill:url(#SVGID_00000114763126669933807950000018375156235845986202_);}
</style>
<path class="st0" d="M90,90H50.03c-6.28,0-11.38-5.09-11.38-11.38V12.27c0-6.16,4.99-11.15,11.15-11.15h29.04
	C85.01,1.12,90,6.11,90,12.27V90z"/>
<linearGradient id="SVGID_1_" gradientUnits="userSpaceOnUse" x1="28.2123" y1="952.36" x2="42.8513" y2="952.36" gradientTransform="matrix(1 0 0 1 0 -908)">
	<stop  offset="0" style="stop-color:#4856CE"/>
	<stop  offset="0.4609" style="stop-color:#D269AF"/>
	<stop  offset="1" style="stop-color:#FBC774"/>
</linearGradient>
<path class="st1" d="M35.53,51.68c4.04,0,7.32-3.27,7.32-7.32c0-4.04-3.27-7.32-7.32-7.32s-7.32,3.27-7.32,7.32l0,0
	C28.23,48.41,31.5,51.67,35.53,51.68z M35.53,38.96c2.98,0,5.4,2.42,5.4,5.4c0,2.98-2.42,5.4-5.4,5.4c-2.98,0-5.4-2.41-5.4-5.4
	C30.13,41.38,32.55,38.96,35.53,38.96L35.53,38.96z"/>
<linearGradient id="SVGID_00000024694941929300560250000012722364838580848268_" gradientUnits="userSpaceOnUse" x1="29.8289" y1="923.0692" x2="41.247" y2="923.0692" gradientTransform="matrix(1 0 0 1 0 -908)">
	<stop  offset="0" style="stop-color:#4856CE"/>
	<stop  offset="0.4609" style="stop-color:#D269AF"/>
	<stop  offset="1" style="stop-color:#FBC774"/>
</linearGradient>
<path style="fill:url(#SVGID_00000024694941929300560250000012722364838580848268_);" d="M35.53,20.77c3.16,0,5.7-2.56,5.7-5.7
	s-2.56-5.7-5.7-5.7s-5.7,2.56-5.7,5.7l0,0C29.83,18.21,32.39,20.77,35.53,20.77z M35.53,11.28c2.09,0,3.79,1.71,3.79,3.79
	s-1.71,3.79-3.79,3.79c-2.09,0-3.79-1.71-3.79-3.79l0,0C31.74,12.97,33.44,11.28,35.53,11.28z"/>
<linearGradient id="SVGID_00000111157215020169730940000000660029174680132232_" gradientUnits="userSpaceOnUse" x1="29.8289" y1="981.6508" x2="41.247" y2="981.6508" gradientTransform="matrix(1 0 0 1 0 -908)">
	<stop  offset="0" style="stop-color:#4856CE"/>
	<stop  offset="0.4609" style="stop-color:#D269AF"/>
	<stop  offset="1" style="stop-color:#FBC774"/>
</linearGradient>
<path style="fill:url(#SVGID_00000111157215020169730940000000660029174680132232_);" d="M35.53,67.95c-3.16,0-5.7,2.56-5.7,5.7
	c0,3.16,2.56,5.7,5.7,5.7s5.7-2.56,5.7-5.7C41.25,70.51,38.69,67.95,35.53,67.95z M35.53,77.46c-2.09,0-3.79-1.71-3.79-3.79
	c0-2.09,1.71-3.79,3.79-3.79c2.09,0,3.79,1.71,3.79,3.79C39.33,75.75,37.63,77.46,35.53,77.46z"/>
<path d="M56.24,29.36c3.16,0,5.7-2.56,5.7-5.7s-2.56-5.7-5.7-5.7c-3.16,0-5.7,2.56-5.7,5.7c0,1.51,0.6,2.95,1.67,4.04
	C53.28,28.78,54.73,29.36,56.24,29.36z M53.57,20.96c1.49-1.49,3.88-1.49,5.37,0c1.49,1.49,1.49,3.88,0,5.37
	c-1.49,1.49-3.88,1.49-5.37,0c-0.71-0.71-1.11-1.68-1.11-2.69C52.45,22.64,52.86,21.68,53.57,20.96z"/>
<path d="M14.82,59.37c-3.16,0-5.7,2.56-5.7,5.7c0,3.14,2.56,5.7,5.7,5.7s5.7-2.56,5.7-5.7c0-1.51-0.6-2.97-1.67-4.04
	C17.79,59.97,16.34,59.37,14.82,59.37z M17.51,67.77c-1.49,1.49-3.88,1.49-5.37,0c-1.49-1.49-1.49-3.88,0-5.37s3.88-1.49,5.37,0
	c0.71,0.71,1.11,1.68,1.11,2.69S18.21,67.06,17.51,67.77z"/>
<linearGradient id="SVGID_00000026129189544369345480000000842609076356768170_" gradientUnits="userSpaceOnUse" x1="59.1324" y1="952.36" x2="70.5505" y2="952.36" gradientTransform="matrix(1 0 0 1 0 -908)">
	<stop  offset="0" style="stop-color:#4856CE"/>
	<stop  offset="0.4609" style="stop-color:#D269AF"/>
	<stop  offset="1" style="stop-color:#FBC774"/>
</linearGradient>
<path style="fill:url(#SVGID_00000026129189544369345480000000842609076356768170_);" d="M64.84,38.66c-3.16,0-5.7,2.56-5.7,5.7
	c0,3.16,2.56,5.7,5.7,5.7c3.16,0,5.7-2.56,5.7-5.7C70.54,41.2,67.98,38.66,64.84,38.66z M64.84,48.15c-2.09,0-3.79-1.71-3.79-3.79
	c0-2.09,1.71-3.79,3.79-3.79c2.09,0,3.79,1.71,3.79,3.79l0,0C68.63,46.46,66.92,48.15,64.84,48.15z"/>
<linearGradient id="SVGID_00000167379891880335213120000003937474853331166637_" gradientUnits="userSpaceOnUse" x1="0.5381" y1="952.36" x2="11.9562" y2="952.36" gradientTransform="matrix(1 0 0 1 0 -908)">
	<stop  offset="0" style="stop-color:#4856CE"/>
	<stop  offset="0.4609" style="stop-color:#D269AF"/>
	<stop  offset="1" style="stop-color:#FBC774"/>
</linearGradient>
<path style="fill:url(#SVGID_00000167379891880335213120000003937474853331166637_);" d="M11.94,44.36c0-3.16-2.56-5.7-5.7-5.7
	s-5.7,2.56-5.7,5.7c0,3.16,2.56,5.7,5.7,5.7l0,0C9.39,50.08,11.94,47.52,11.94,44.36z M6.24,48.15c-2.09,0-3.79-1.71-3.79-3.79
	c0-2.09,1.71-3.79,3.79-3.79s3.79,1.71,3.79,3.79l0,0C10.03,46.46,8.33,48.15,6.24,48.15z"/>
<path d="M52.21,61.04c-2.23,2.23-2.23,5.84,0,8.08c2.23,2.23,5.84,2.23,8.08,0c2.23-2.23,2.23-5.84,0-8.08
	c-2.19-2.23-5.79-2.25-8.02-0.05C52.25,61.01,52.23,61.02,52.21,61.04z M58.94,67.77c-1.49,1.49-3.88,1.49-5.37,0
	c-1.49-1.49-1.49-3.88,0-5.37c1.49-1.49,3.88-1.49,5.37,0c0.71,0.71,1.11,1.68,1.11,2.69C60.04,66.09,59.65,67.06,58.94,67.77z"/>
<path d="M14.82,29.36c3.16,0,5.7-2.56,5.7-5.7s-2.56-5.7-5.7-5.7s-5.7,2.56-5.7,5.7c0,1.51,0.6,2.97,1.67,4.04
	C11.85,28.77,13.31,29.36,14.82,29.36z M12.13,20.96c1.49-1.49,3.88-1.49,5.37,0c1.49,1.49,1.49,3.88,0,5.37
	c-1.49,1.49-3.88,1.49-5.37,0l0,0c-1.49-1.48-1.49-3.87-0.03-5.35C12.12,20.98,12.13,20.98,12.13,20.96z"/>
<path d="M50.82,48.56c0.37,0.37,0.98,0.37,1.35,0l0,0l3.51-3.51c0.37-0.37,0.37-0.98,0-1.35l0,0l-3.51-3.51
	c-0.38-0.37-0.99-0.36-1.35,0.03c-0.36,0.37-0.36,0.95,0,1.32l1.88,1.88h-5.52c-0.19-2.43-1.16-4.74-2.74-6.61l3.9-3.9v2.65
	c0,0.52,0.43,0.95,0.95,0.95s0.95-0.43,0.95-0.95V30.6c0-0.52-0.43-0.95-0.95-0.95h-4.98c-0.52,0-0.95,0.43-0.95,0.95
	s0.43,0.95,0.95,0.95h2.67l-3.91,3.91c-1.86-1.58-4.16-2.53-6.59-2.74v-5.51l1.87,1.87c0.37,0.37,0.98,0.37,1.35,0s0.37-0.98,0-1.35
	l-3.51-3.51c-0.37-0.37-0.98-0.37-1.35,0l-3.51,3.51c-0.37,0.37-0.37,0.98,0,1.35c0.37,0.37,0.98,0.37,1.35,0l1.88-1.88v5.54
	c-2.43,0.19-4.75,1.16-6.61,2.74l-3.91-3.92h2.67c0.52,0,0.95-0.43,0.95-0.95c0-0.52-0.43-0.95-0.95-0.95h-4.96
	c-0.52,0-0.95,0.43-0.95,0.95v4.96c0,0.52,0.43,0.95,0.95,0.95c0.52,0,0.95-0.43,0.95-0.95v-2.65l3.91,3.91
	c-1.58,1.86-2.53,4.16-2.72,6.59h-5.55l1.88-1.88c0.37-0.37,0.37-0.98,0-1.35s-0.98-0.37-1.35,0l-3.51,3.51
	c-0.37,0.37-0.37,0.98,0,1.35l0,0l3.51,3.51c0.37,0.38,0.97,0.39,1.35,0.03c0.38-0.37,0.39-0.97,0.03-1.35
	c-0.01-0.01-0.03-0.03-0.03-0.03l-1.87-1.87h5.52c0.19,2.43,1.16,4.74,2.74,6.58l-3.92,3.92v-2.67c0-0.52-0.43-0.95-0.95-0.95
	c-0.52,0-0.95,0.43-0.95,0.95v4.96c0,0.52,0.43,0.95,0.95,0.95h4.96c0.52,0,0.95-0.43,0.95-0.95c0-0.52-0.43-0.95-0.95-0.95h-2.65
	l3.91-3.91c1.86,1.58,4.16,2.53,6.59,2.74v5.54l-1.88-1.88c-0.37-0.37-0.98-0.37-1.35,0c-0.37,0.37-0.37,0.98,0,1.35l3.51,3.51
	c0.37,0.37,0.98,0.37,1.35,0l0,0l3.51-3.51c0.37-0.37,0.37-0.98,0-1.35s-0.98-0.37-1.35,0l-1.87,1.87v-5.51
	c2.42-0.19,4.74-1.15,6.58-2.72l3.9,3.9H44.3c-0.52,0-0.95,0.43-0.95,0.95c0,0.52,0.43,0.95,0.95,0.95h4.96
	c0.52,0,0.95-0.43,0.95-0.95v-4.96c0-0.52-0.43-0.95-0.95-0.95c-0.52,0-0.95,0.43-0.95,0.95v2.67l-3.91-3.91
	c1.59-1.86,2.55-4.16,2.74-6.59h5.5l-1.87,1.87C50.44,47.57,50.44,48.18,50.82,48.56C50.81,48.55,50.82,48.55,50.82,48.56z
	 M35.53,34.58c2.58,0,5.07,1.03,6.9,2.86l0.01,0.01l0.01,0.01c1.81,1.81,2.84,4.28,2.85,6.85c0,0.03-0.01,0.04-0.01,0.06
	s0,0.03,0.01,0.05c-0.01,2.57-1.04,5.04-2.86,6.85l-0.01,0.01l0,0c-3.82,3.82-10.01,3.81-13.82-0.03s-3.81-10.01,0.03-13.82
	C30.47,35.61,32.95,34.58,35.53,34.58z"/>
</svg>
