<?xml version="1.0" encoding="utf-8"?>
<!-- Generator: Adobe Illustrator 26.5.0, SVG Export Plug-In . SVG Version: 6.00 Build 0)  -->
<svg version="1.1" id="Layer_1" xmlns="http://www.w3.org/2000/svg" xmlns:xlink="http://www.w3.org/1999/xlink" x="0px" y="0px"
	 width="90px" height="90px" viewBox="0 0 90 90" style="enable-background:new 0 0 90 90;" xml:space="preserve">
<style type="text/css">
	.st0{fill:#FFFFFF;}
	.st1{fill:url(#SVGID_1_);}
	.st2{fill:url(#SVGID_00000098193257634102828190000000224218047034275258_);}
</style>
<path class="st0" d="M90,90.03H50.03c-6.28,0-11.38-5.09-11.38-11.38V12.3c0-6.16,4.99-11.15,11.15-11.15h29.04
	C85.01,1.15,90,6.14,90,12.3V90.03z"/>
<g>
	<path d="M58.68,10.41h-3c-1.32,0-1.32,2.05,0,2.05h3c3.1,0,5.62,2.52,5.62,5.61V41.8c0,3.09-2.53,5.61-5.62,5.61h-3.41
		c-0.22,0-0.45,0.08-0.62,0.22l-6.26,4.78v-3.98c0-0.56-0.47-1.03-1.03-1.03H34.88c-1.03,0-2.01-0.27-2.88-0.78v-11.5
		c0-2.16-1.11-4.06-2.76-5.19V18.07c0-3.09,2.53-5.61,5.62-5.61h14.37c1.32,0,1.32-2.05,0-2.05H34.9c-4.25,0-7.69,3.44-7.69,7.66
		v10.96c-0.47-0.11-0.97-0.17-1.46-0.17H6.99c-3.47,0-6.29,2.81-6.29,6.26v2.21c0,1.32,2.05,1.32,2.05,0v-2.21
		c0-2.32,1.9-4.21,4.22-4.21h18.77c2.33,0,4.22,1.88,4.22,4.21v11.91c-0.01,0.09-0.01,0.19,0,0.27v6.51c0,0.13-0.01,0.27-0.01,0.39
		h-2.11c-2.33,0-4.28,1.68-4.68,3.88c-0.09,0.03-0.19,0.08-0.27,0.15l-4.58,3.55v-2.72c0-0.56-0.47-1.03-1.03-1.03H6.98
		c-2.33,0-4.22-1.88-4.22-4.21V43.49c0-1.32-2.05-1.32-2.05,0v10.35c0,3.45,2.81,6.26,6.29,6.26h9.28v3.79
		c0,0.83,0.99,1.32,1.65,0.81l5.18-4v11.54c0,2.61,2.12,4.75,4.76,4.75h6.3v2.39c0,0.83,0.99,1.32,1.65,0.81l4.15-3.21h1.23
		c2.62,0,4.76-2.12,4.76-4.75v-1.82c0-1.32-2.05-1.32-2.05,0v1.82c0,1.48-1.21,2.68-2.71,2.68h-1.57c-0.23,0-0.45,0.08-0.62,0.22
		l-2.76,2.15v-1.34c0-0.56-0.47-1.03-1.03-1.03H27.9c-1.49,0-2.71-1.21-2.71-2.68V58.96c0-1.48,1.21-2.68,2.71-2.68h13.27
		c1.49,0,2.71,1.21,2.71,2.68V64c0,1.32,2.05,1.32,2.05,0v-5.04c0-2.61-2.12-4.75-4.76-4.75h-9.14c0.01-0.13,0.01-5.31,0.01-5.31
		c0.87,0.34,1.85,0.53,2.85,0.53h11.44v5.03c0,0.83,0.99,1.32,1.65,0.81l7.63-5.83h3.07c4.25,0,7.69-3.44,7.69-7.66V18.05
		C66.36,13.84,62.93,10.41,58.68,10.41L58.68,10.41z"/>
	
		<linearGradient id="SVGID_1_" gradientUnits="userSpaceOnUse" x1="34.9858" y1="937.7479" x2="58.5931" y2="937.7479" gradientTransform="matrix(1 0 0 1 0 -908)">
		<stop  offset="0" style="stop-color:#4856CE"/>
		<stop  offset="0.4609" style="stop-color:#D269AF"/>
		<stop  offset="1" style="stop-color:#FBC774"/>
	</linearGradient>
	<path class="st1" d="M49.35,17.98c-1.31-0.33-2.62,0.7-2.62,2.04c0,1.48-0.53,2.89-1.51,3.98l-2.82,3.21
		c-0.19-0.28-0.5-0.47-0.85-0.47h-5.52c-0.56,0-1.03,0.47-1.03,1.03v12.41c0,0.56,0.47,1.03,1.03,1.03h5.52
		c0.42,0,0.78-0.25,0.93-0.61c1.12,0.69,2.4,1.06,3.73,1.06h9.75c1.49,0,2.72-1.29,2.65-2.79c-0.03-0.65,0-9.48,0-9.68
		c0-1.46-1.18-2.65-2.65-2.65l-5.06-0.01l0.2-0.5c0.97-2.26,0.81-4.9-0.42-7.04C50.37,18.47,49.9,18.12,49.35,17.98
		C48.79,17.82,49.9,18.12,49.35,17.98C48.05,17.63,49.9,18.12,49.35,17.98L49.35,17.98z M40.51,39.14h-3.46V28.78h3.46V39.14z
		 M55.93,28.56c0.33,0,0.61,0.27,0.61,0.61c0,0.2,0,0.73,0,1.45c-0.01,3.97-0.03,7.71,0,8.33c0.01,0.22-0.09,0.37-0.17,0.45
		c-0.11,0.13-0.27,0.19-0.43,0.19H46.2c-1.17,0-2.3-0.41-3.21-1.13l-0.43-0.34v-8l4.2-4.75c1.31-1.48,2.02-3.37,2.02-5.34
		c0-0.06,0.08-0.08,0.11-0.03c0.9,1.59,1.03,3.55,0.31,5.23l-0.81,1.91c-0.14,0.31-0.09,0.69,0.09,0.97
		c0.19,0.28,0.51,0.47,0.85,0.47L55.93,28.56z"/>
	<path d="M9.47,45.98c-0.56,0-1.03,0.47-1.03,1.03c0,0.56,0.47,1.03,1.03,1.03h3.03l-0.56,3.42c-0.09,0.56,0.28,1.09,0.84,1.18
		c0.06,0.01,0.11,0.01,0.17,0.01c0.5,0,0.93-0.36,1.01-0.85l0.62-3.74h2.47l-0.56,3.42c-0.09,0.56,0.28,1.09,0.84,1.18
		c0.06,0.01,0.11,0.01,0.17,0.01c0.5,0,0.93-0.36,1.01-0.85l0.62-3.74h4.12c0.56,0,1.03-0.47,1.03-1.03s-0.47-1.03-1.03-1.03h-3.78
		l0.42-2.51h3.36c0.56,0,1.03-0.47,1.03-1.03c0-0.56-0.47-1.03-1.03-1.03h-3.02l0.56-3.42c0.09-0.56-0.28-1.09-0.84-1.18
		c-0.56-0.09-1.09,0.28-1.18,0.84l-0.62,3.74h-2.48l0.56-3.42c0.09-0.56-0.28-1.09-0.84-1.18c-0.56-0.09-1.09,0.28-1.18,0.84
		l-0.62,3.74h-4.1c-0.56,0-1.03,0.47-1.03,1.03c0,0.56,0.47,1.03,1.03,1.03h3.78l-0.42,2.51H9.47z M15.34,43.5h2.47l-0.42,2.51
		h-2.47L15.34,43.5z"/>
	
		<linearGradient id="SVGID_00000085939508027153691390000001010986271662160270_" gradientUnits="userSpaceOnUse" x1="28.598" y1="973.9293" x2="40.3937" y2="973.9293" gradientTransform="matrix(1 0 0 1 0 -908)">
		<stop  offset="0" style="stop-color:#4856CE"/>
		<stop  offset="0.4609" style="stop-color:#D269AF"/>
		<stop  offset="1" style="stop-color:#FBC774"/>
	</linearGradient>
	<path style="fill:url(#SVGID_00000085939508027153691390000001010986271662160270_);" d="M34.48,61.53
		c-0.83-0.69-1.93-0.95-3.03-0.69c-1.41,0.34-2.85,1.67-2.85,3.86c0,1.35,0.5,2.53,1.51,3.6c0.84,0.87,2.04,1.69,3.91,2.68
		c0.15,0.08,0.31,0.13,0.48,0.13c0.17,0,0.33-0.05,0.48-0.13c3.24-1.73,5.41-3.45,5.41-6.29c0-2.19-1.48-3.5-2.94-3.83
		C36.33,60.63,35.27,60.88,34.48,61.53L34.48,61.53z M38.33,64.71c0,1.54-1.01,2.66-3.84,4.21c-2.82-1.55-3.84-2.68-3.84-4.21
		c0-1.13,0.65-1.71,1.27-1.85c0.11-0.03,0.23-0.05,0.36-0.05c0.47,0,0.98,0.22,1.29,0.83c0.19,0.34,0.55,0.56,0.93,0.56
		c0.39-0.01,0.75-0.23,0.9-0.59c0.33-0.71,1.03-0.84,1.57-0.71C37.65,63.01,38.33,63.57,38.33,64.71z"/>
</g>
</svg>
