<?xml version="1.0" encoding="utf-8"?>
<!-- Generator: Adobe Illustrator 26.5.0, SVG Export Plug-In . SVG Version: 6.00 Build 0)  -->
<svg version="1.1" id="_x33_0" xmlns="http://www.w3.org/2000/svg" xmlns:xlink="http://www.w3.org/1999/xlink" x="0px" y="0px"
	 width="90px" height="90px" viewBox="0 0 90 90" style="enable-background:new 0 0 90 90;" xml:space="preserve">
<style type="text/css">
	.st0{fill:#FFFFFF;}
	.st1{fill:url(#SVGID_1_);}
	.st2{fill:url(#SVGID_00000136378204473612410280000007867321364237732270_);}
	.st3{fill:url(#SVGID_00000032620016087034812100000008230450071222349750_);}
	.st4{fill:url(#SVGID_00000144311918993658717450000012193338913396476800_);}
	.st5{fill:url(#SVGID_00000003099142429279801470000018000298865393767092_);}
</style>
<path class="st0" d="M89.59,90.1H49.62c-6.28,0-11.38-5.09-11.38-11.38V12.37c0-6.16,4.99-11.15,11.15-11.15h29.04
	c6.17,0,11.16,4.99,11.16,11.15V90.1z"/>
<linearGradient id="SVGID_1_" gradientUnits="userSpaceOnUse" x1="11.7018" y1="28.5795" x2="20.6471" y2="28.5795" gradientTransform="matrix(1 0 0 -1 0 92)">
	<stop  offset="0" style="stop-color:#4856CE"/>
	<stop  offset="0.4609" style="stop-color:#D269AF"/>
	<stop  offset="1" style="stop-color:#FBC774"/>
</linearGradient>
<path class="st1" d="M16.17,58.95c-2.47,0-4.47,2.01-4.47,4.47c0,2.46,2.01,4.47,4.47,4.47s4.47-2.01,4.47-4.47
	C20.64,60.96,18.64,58.95,16.17,58.95z M16.17,65.67c-1.23,0-2.24-1.01-2.24-2.24s1.01-2.24,2.24-2.24c1.23,0,2.24,1.01,2.24,2.24
	S17.4,65.67,16.17,65.67z"/>
<linearGradient id="SVGID_00000159449080765326750200000016313233137993041285_" gradientUnits="userSpaceOnUse" x1="7.2218" y1="28.5668" x2="25.1164" y2="28.5668" gradientTransform="matrix(1 0 0 -1 0 92)">
	<stop  offset="0" style="stop-color:#4856CE"/>
	<stop  offset="0.4609" style="stop-color:#D269AF"/>
	<stop  offset="1" style="stop-color:#FBC774"/>
</linearGradient>
<path style="fill:url(#SVGID_00000159449080765326750200000016313233137993041285_);" d="M16.17,54.49c-4.94,0-8.95,4.01-8.95,8.95
	s4.01,8.95,8.95,8.95s8.95-4.01,8.95-8.95S21.09,54.49,16.17,54.49z M16.17,70.14c-3.7,0-6.71-3-6.71-6.71c0-3.7,3-6.71,6.71-6.71
	s6.71,3,6.71,6.71C22.88,67.14,19.87,70.14,16.17,70.14z"/>
<path d="M70.51,60.01l-2.91-2.14V39.52l-3.45,1.15c-0.8,0.27-1.63,0.41-2.48,0.41c-1.67,0-3.02-1.35-3.02-3.02v-2.9
	c0-1.67,1.35-3.02,3.02-3.02c0.84,0,1.68,0.14,2.48,0.41l3.45,1.15V22.07c0-1.85-1.5-3.36-3.36-3.36h-8.51l0.38-1.15
	c0.2-0.61,0.31-1.23,0.31-1.87c0-3.27-2.66-5.93-5.93-5.93h-1.57c-3.27,0-5.93,2.66-5.93,5.93c0,0.64,0.1,1.27,0.31,1.87l0.38,1.15
	H37.4c-0.87,0-1.64,0.33-2.24,0.88c-0.6-0.53-1.37-0.88-2.24-0.88H24.4l0.38-1.15c0.2-0.61,0.31-1.23,0.31-1.87
	c0-3.27-2.66-5.93-5.93-5.93h-1.57c-3.27,0-5.93,2.66-5.93,5.93c0,0.64,0.1,1.27,0.31,1.87l0.38,1.15H6.1
	c-1.85,0-3.36,1.5-3.36,3.36v32.65l-0.81,0.81l1.53,1.53c0.48,0.48,0.31,1.06,0.24,1.22c-0.06,0.17-0.34,0.69-1.03,0.69H0.51v8.95
	h2.15c0.69,0,0.97,0.53,1.03,0.69c0.06,0.17,0.24,0.73-0.24,1.22l-1.53,1.53l6.33,6.33l1.53-1.53c0.5-0.5,1.06-0.31,1.22-0.24
	c0.17,0.06,0.69,0.34,0.69,1.03v2.15h8.95v-2.15c0-0.69,0.53-0.97,0.69-1.03c0.17-0.06,0.73-0.25,1.22,0.24l1.53,1.53l6.33-6.33
	l-1.53-1.53c-0.48-0.48-0.31-1.06-0.24-1.22c0.06-0.17,0.34-0.69,1.03-0.69h1.04h1.12h19.01v9.16L70.51,60.01z M37.41,20.94h9.38
	l-1.36-4.09c-0.13-0.38-0.19-0.76-0.19-1.17c0-2.04,1.65-3.69,3.69-3.69h1.57c2.04,0,3.69,1.65,3.69,3.69
	c0,0.39-0.06,0.79-0.19,1.17l-1.36,4.09h11.62c0.61,0,1.12,0.5,1.12,1.12v8.51l-0.51-0.17c-1.03-0.34-2.1-0.52-3.18-0.52
	c-2.9,0-5.26,2.35-5.26,5.26v2.9c0,2.9,2.35,5.26,5.26,5.26c1.08,0,2.15-0.18,3.18-0.52l0.51-0.17v13.62L50.84,45.56v8.91H36.29
	V42.61l0.51,0.17c1.03,0.34,2.1,0.52,3.18,0.52c2.9,0,5.26-2.35,5.26-5.26v-2.9c0-1.4-0.55-2.72-1.54-3.72
	c-0.99-0.99-2.32-1.54-3.72-1.54l0,0c-1.08,0-2.15,0.18-3.18,0.52l-0.51,0.17v-8.51C36.29,21.45,36.8,20.94,37.41,20.94L37.41,20.94
	z M4.98,22.06c0-0.61,0.5-1.12,1.12-1.12h9.38l-1.36-4.09c-0.13-0.38-0.19-0.76-0.19-1.17c0-2.04,1.65-3.69,3.69-3.69h1.57
	c2.04,0,3.69,1.65,3.69,3.69c0,0.39-0.06,0.79-0.19,1.17l-1.36,4.09h11.62c0.61,0,1.12,0.5,1.12,1.12v11.62l3.45-1.15
	c0.8-0.27,1.63-0.41,2.48-0.41l0,0c0.8,0,1.57,0.32,2.14,0.88c0.57,0.57,0.88,1.32,0.88,2.14v2.9c0,1.67-1.35,3.02-3.02,3.02
	c-0.84,0-1.68-0.14-2.48-0.41l-3.45-1.15v14.97h-4.7l-5.28-5.28l-1.53,1.53c-0.5,0.5-1.06,0.31-1.22,0.24
	c-0.17-0.06-0.69-0.34-0.69-1.03v-2.15h-8.96v2.15c0,0.69-0.53,0.97-0.69,1.03c-0.17,0.06-0.73,0.25-1.22-0.24l-1.53-1.53
	l-3.27,3.27L4.98,22.06z M29.58,65.67c-1.35,0.03-2.51,0.81-3.02,2.07c-0.52,1.25-0.25,2.62,0.67,3.6l-3.17,3.17
	c-0.98-0.93-2.34-1.2-3.6-0.67c-1.26,0.52-2.04,1.67-2.07,3.02h-4.48c-0.03-1.35-0.81-2.51-2.07-3.02c-1.25-0.52-2.62-0.25-3.6,0.67
	l-3.17-3.17c0.93-0.98,1.2-2.34,0.67-3.6c-0.52-1.25-1.67-2.04-3.02-2.07v-4.48c1.35-0.03,2.51-0.81,3.02-2.07
	c0.52-1.25,0.25-2.62-0.67-3.6l3.17-3.17c0.98,0.93,2.34,1.2,3.6,0.67c1.25-0.52,2.04-1.67,2.07-3.02h4.48
	c0.03,1.35,0.81,2.51,2.07,3.02c1.26,0.52,2.62,0.25,3.6-0.67l3.17,3.17c-0.93,0.98-1.2,2.34-0.67,3.6
	c0.52,1.25,1.67,2.04,3.02,2.07V65.67z M31.82,65.67v-6.71h-2.15c-0.69,0-0.97-0.53-1.03-0.69c-0.06-0.17-0.24-0.73,0.24-1.22
	l0.33-0.33h23.86v-6.73l13.86,10.17L53.08,72.18v-6.49L31.82,65.67z"/>
<linearGradient id="SVGID_00000124852656981229823740000010193913957018476183_" gradientUnits="userSpaceOnUse" x1="7.2222" y1="56.5286" x2="13.9311" y2="56.5286" gradientTransform="matrix(1 0 0 -1 0 92)">
	<stop  offset="0" style="stop-color:#4856CE"/>
	<stop  offset="0.4609" style="stop-color:#D269AF"/>
	<stop  offset="1" style="stop-color:#FBC774"/>
</linearGradient>
<path style="fill:url(#SVGID_00000124852656981229823740000010193913957018476183_);" d="M13.93,35.47c0-1.85-1.5-3.36-3.36-3.36
	s-3.36,1.5-3.36,3.36c0,1.86,1.5,3.36,3.36,3.36S13.93,37.33,13.93,35.47z M9.46,35.47c0-0.61,0.5-1.12,1.12-1.12
	c0.62,0,1.12,0.5,1.12,1.12c0,0.61-0.5,1.12-1.12,1.12C9.96,36.59,9.46,36.1,9.46,35.47z"/>
<linearGradient id="SVGID_00000165234905727547684960000006786775082668834995_" gradientUnits="userSpaceOnUse" x1="16.1674" y1="56.5286" x2="22.8764" y2="56.5286" gradientTransform="matrix(1 0 0 -1 0 92)">
	<stop  offset="0" style="stop-color:#4856CE"/>
	<stop  offset="0.4609" style="stop-color:#D269AF"/>
	<stop  offset="1" style="stop-color:#FBC774"/>
</linearGradient>
<path style="fill:url(#SVGID_00000165234905727547684960000006786775082668834995_);" d="M19.52,38.83c1.85,0,3.36-1.5,3.36-3.36
	c0-1.86-1.5-3.36-3.36-3.36c-1.85,0-3.36,1.5-3.36,3.36C16.16,37.33,17.67,38.83,19.52,38.83z M19.52,34.36
	c0.61,0,1.12,0.5,1.12,1.12c0,0.61-0.5,1.12-1.12,1.12c-0.61,0-1.12-0.5-1.12-1.12C18.41,34.86,18.91,34.36,19.52,34.36z"/>
<linearGradient id="SVGID_00000183965879620596290430000008814743606668904639_" gradientUnits="userSpaceOnUse" x1="25.1127" y1="56.5286" x2="31.8216" y2="56.5286" gradientTransform="matrix(1 0 0 -1 0 92)">
	<stop  offset="0" style="stop-color:#4856CE"/>
	<stop  offset="0.4609" style="stop-color:#D269AF"/>
	<stop  offset="1" style="stop-color:#FBC774"/>
</linearGradient>
<path style="fill:url(#SVGID_00000183965879620596290430000008814743606668904639_);" d="M28.46,38.83c1.85,0,3.36-1.5,3.36-3.36
	c0-1.86-1.5-3.36-3.36-3.36c-1.85,0-3.36,1.5-3.36,3.36C25.1,37.33,26.62,38.83,28.46,38.83z M28.46,34.36
	c0.61,0,1.12,0.5,1.12,1.12c0,0.61-0.5,1.12-1.12,1.12c-0.61,0-1.12-0.5-1.12-1.12C27.34,34.86,27.85,34.36,28.46,34.36z"/>
</svg>
