<?xml version="1.0" encoding="utf-8"?>
<!-- Generator: Adobe Illustrator 26.5.0, SVG Export Plug-In . SVG Version: 6.00 Build 0)  -->
<svg version="1.1" id="uuid-55bce9ba-397c-4f2e-9ecc-e9ad09a75ed0"
	 xmlns="http://www.w3.org/2000/svg" xmlns:xlink="http://www.w3.org/1999/xlink" x="0px" y="0px" width="90px" height="90px"
	 viewBox="0 0 90 90" style="enable-background:new 0 0 90 90;" xml:space="preserve">
<style type="text/css">
	.st0{fill:#FFFFFF;}
	.st1{fill:url(#SVGID_1_);}
	.st2{fill:url(#SVGID_00000013185799364918927530000015815936174005909911_);}
	.st3{fill:url(#SVGID_00000059302219568353850950000012875260946033729694_);}
	.st4{fill:url(#SVGID_00000057841919750931380720000014572086407144701615_);}
	.st5{fill:url(#SVGID_00000021084253252178950500000009001539684915139751_);}
	.st6{fill:url(#SVGID_00000122720020123316333170000005047199255086324126_);}
</style>
<path class="st0" d="M88.98,89.4H49.01c-6.28,0-11.38-5.09-11.38-11.38V11.67c0-6.16,4.99-11.15,11.15-11.15h29.04
	c6.16,0,11.15,4.99,11.15,11.15V89.4H88.98z"/>
<linearGradient id="SVGID_1_" gradientUnits="userSpaceOnUse" x1="41.0008" y1="932.2029" x2="64.6946" y2="932.2029" gradientTransform="matrix(1 0 0 1 0 -908)">
	<stop  offset="0" style="stop-color:#4856CE"/>
	<stop  offset="0.4609" style="stop-color:#D269AF"/>
	<stop  offset="1" style="stop-color:#FBC774"/>
</linearGradient>
<path class="st1" d="M52.85,36.05c6.53,0,11.85-5.31,11.85-11.85s-5.31-11.85-11.85-11.85S41,17.66,41,24.2S46.32,36.05,52.85,36.05
	z M52.85,14.01c5.62,0,10.19,4.58,10.19,10.19S58.46,34.4,52.85,34.4c-5.62,0-10.19-4.58-10.19-10.19S47.22,14.01,52.85,14.01z"/>
<linearGradient id="SVGID_00000028321097063873945580000007071520609985829519_" gradientUnits="userSpaceOnUse" x1="49.272" y1="932.2094" x2="56.4362" y2="932.2094" gradientTransform="matrix(1 0 0 1 0 -908)">
	<stop  offset="0" style="stop-color:#4856CE"/>
	<stop  offset="0.4609" style="stop-color:#D269AF"/>
	<stop  offset="1" style="stop-color:#FBC774"/>
</linearGradient>
<path style="fill:url(#SVGID_00000028321097063873945580000007071520609985829519_);" d="M52.02,30.44v1.49
	c0,0.46,0.37,0.83,0.83,0.83s0.83-0.37,0.83-0.83v-1.49c1.58-0.38,2.75-1.78,2.75-3.47c0-1.97-1.62-3.58-3.58-3.58
	c-1.07,0-1.93-0.87-1.93-1.93s0.87-1.93,1.93-1.93s1.93,0.87,1.93,1.93v0.69c0,0.46,0.37,0.83,0.83,0.83s0.83-0.37,0.83-0.83v-0.69
	c0-1.69-1.18-3.1-2.75-3.47v-1.49c0-0.46-0.37-0.83-0.83-0.83s-0.83,0.37-0.83,0.83v1.49c-1.58,0.38-2.75,1.78-2.75,3.47
	c0,1.97,1.62,3.58,3.58,3.58c1.07,0,1.93,0.87,1.93,1.93s-0.87,1.93-1.93,1.93s-1.93-0.87-1.93-1.93v-0.67
	c0-0.46-0.37-0.83-0.83-0.83s-0.83,0.37-0.83,0.83v0.69C49.27,28.66,50.44,30.06,52.02,30.44z"/>
<path d="M37.96,37.17c1.37,0,2.48-1.11,2.48-2.48s-1.11-2.48-2.48-2.48c-1.37,0-2.48,1.11-2.48,2.48
	C35.48,36.04,36.61,37.17,37.96,37.17z M37.96,33.85c0.46,0,0.83,0.37,0.83,0.83s-0.37,0.83-0.83,0.83s-0.83-0.37-0.83-0.83
	C37.15,34.22,37.5,33.85,37.96,33.85z"/>
<path d="M64.15,34.12c0,0.46,0.37,0.83,0.83,0.83h1.39v1.39c0,0.46,0.37,0.83,0.83,0.83s0.83-0.37,0.83-0.83v-1.37h1.39
	c0.46,0,0.83-0.37,0.83-0.83s-0.37-0.83-0.83-0.83h-1.39v-1.4c0-0.46-0.37-0.83-0.83-0.83s-0.83,0.37-0.83,0.83v1.39h-1.39
	C64.52,33.3,64.15,33.67,64.15,34.12z"/>
<path d="M27.5,16.21h1.39v1.39c0,0.46,0.37,0.83,0.83,0.83c0.46,0,0.83-0.37,0.83-0.83v-1.39h1.39c0.46,0,0.83-0.37,0.83-0.83
	c0-0.46-0.37-0.83-0.83-0.83h-1.39v-1.37c0-0.46-0.37-0.83-0.83-0.83c-0.46,0-0.83,0.37-0.83,0.83v1.39H27.5
	c-0.46,0-0.83,0.37-0.83,0.83C26.67,15.84,27.04,16.21,27.5,16.21z"/>
<path d="M8.22,21.72h3.3c0.46,0,0.83-0.37,0.83-0.83v-4.4c0-0.46-0.37-0.83-0.83-0.83h-3.3c-0.46,0-0.83,0.37-0.83,0.83v4.42
	C7.38,21.35,7.76,21.72,8.22,21.72z M9.04,17.32h1.65v2.75H9.04C9.04,20.07,9.04,17.32,9.04,17.32z"/>
<path d="M14.83,21.72h3.3c0.46,0,0.83-0.37,0.83-0.83v-4.4c0-0.46-0.37-0.83-0.83-0.83h-3.3c-0.46,0-0.83,0.37-0.83,0.83v4.42
	C14,21.35,14.37,21.72,14.83,21.72z M15.64,17.32h1.65v2.75h-1.65V17.32z"/>
<path d="M8.22,29.43h3.3c0.46,0,0.83-0.37,0.83-0.83v-4.42c0-0.46-0.37-0.83-0.83-0.83h-3.3c-0.46,0-0.83,0.37-0.83,0.83v4.42
	C7.38,29.06,7.76,29.43,8.22,29.43z M9.04,25.04h1.65v2.75H9.04C9.04,27.79,9.04,25.04,9.04,25.04z"/>
<path d="M14.83,29.43h3.3c0.46,0,0.83-0.37,0.83-0.83v-4.42c0-0.46-0.37-0.83-0.83-0.83h-3.3c-0.46,0-0.83,0.37-0.83,0.83v4.42
	C14,29.06,14.37,29.43,14.83,29.43z M15.64,25.04h1.65v2.75h-1.65V25.04z"/>
<linearGradient id="SVGID_00000135693135682304982100000015144912938223051668_" gradientUnits="userSpaceOnUse" x1="7.385" y1="942.1348" x2="12.3447" y2="942.1348" gradientTransform="matrix(1 0 0 1 0 -908)">
	<stop  offset="0" style="stop-color:#4856CE"/>
	<stop  offset="0.4609" style="stop-color:#D269AF"/>
	<stop  offset="1" style="stop-color:#FBC774"/>
</linearGradient>
<path style="fill:url(#SVGID_00000135693135682304982100000015144912938223051668_);" d="M8.22,37.17h3.3
	c0.46,0,0.83-0.37,0.83-0.83v-4.42c0-0.46-0.37-0.83-0.83-0.83h-3.3c-0.46,0-0.83,0.37-0.83,0.83v4.42
	C7.38,36.79,7.76,37.17,8.22,37.17z M9.04,32.75h1.65v2.75H9.04C9.04,35.5,9.04,32.75,9.04,32.75z"/>
<linearGradient id="SVGID_00000036932985841483661100000012274439480094939030_" gradientUnits="userSpaceOnUse" x1="13.9984" y1="942.1348" x2="18.9581" y2="942.1348" gradientTransform="matrix(1 0 0 1 0 -908)">
	<stop  offset="0" style="stop-color:#4856CE"/>
	<stop  offset="0.4609" style="stop-color:#D269AF"/>
	<stop  offset="1" style="stop-color:#FBC774"/>
</linearGradient>
<path style="fill:url(#SVGID_00000036932985841483661100000012274439480094939030_);" d="M14.83,37.17h3.3
	c0.46,0,0.83-0.37,0.83-0.83v-4.42c0-0.46-0.37-0.83-0.83-0.83h-3.3c-0.46,0-0.83,0.37-0.83,0.83v4.42
	C14,36.79,14.37,37.17,14.83,37.17z M15.64,32.75h1.65v2.75h-1.65V32.75z"/>
<linearGradient id="SVGID_00000018939593486724166450000014318986708860002479_" gradientUnits="userSpaceOnUse" x1="7.385" y1="949.8336" x2="12.3447" y2="949.8336" gradientTransform="matrix(1 0 0 1 0 -908)">
	<stop  offset="0" style="stop-color:#4856CE"/>
	<stop  offset="0.4609" style="stop-color:#D269AF"/>
	<stop  offset="1" style="stop-color:#FBC774"/>
</linearGradient>
<path style="fill:url(#SVGID_00000018939593486724166450000014318986708860002479_);" d="M12.34,44.04v-4.42
	c0-0.46-0.37-0.83-0.83-0.83h-3.3c-0.46,0-0.83,0.37-0.83,0.83v4.42c0,0.46,0.37,0.83,0.83,0.83h3.3
	C11.98,44.88,12.34,44.5,12.34,44.04z M10.7,43.21H9.05v-2.75h1.65V43.21z"/>
<linearGradient id="SVGID_00000159438260763599307020000015108691585523105686_" gradientUnits="userSpaceOnUse" x1="13.9984" y1="949.8461" x2="18.9581" y2="949.8461" gradientTransform="matrix(1 0 0 1 0 -908)">
	<stop  offset="0" style="stop-color:#4856CE"/>
	<stop  offset="0.4609" style="stop-color:#D269AF"/>
	<stop  offset="1" style="stop-color:#FBC774"/>
</linearGradient>
<path style="fill:url(#SVGID_00000159438260763599307020000015108691585523105686_);" d="M14.83,44.88h3.3
	c0.46,0,0.83-0.37,0.83-0.83v-4.42c0-0.46-0.37-0.83-0.83-0.83h-3.3c-0.46,0-0.83,0.37-0.83,0.83v4.42
	C14,44.5,14.37,44.88,14.83,44.88z M15.64,40.47h1.65v2.75h-1.65V40.47z"/>
<path d="M28.61,31.09h-3.3c-0.46,0-0.83,0.37-0.83,0.83v4.42c0,0.46,0.37,0.83,0.83,0.83h3.3c0.46,0,0.83-0.37,0.83-0.83v-4.42
	C29.43,31.46,29.06,31.09,28.61,31.09z M27.77,35.5h-1.65v-2.75h1.65V35.5z"/>
<path d="M28.61,38.81h-3.3c-0.46,0-0.83,0.37-0.83,0.83v4.42c0,0.46,0.37,0.83,0.83,0.83h3.3c0.46,0,0.83-0.37,0.83-0.83v-4.42
	C29.43,39.19,29.06,38.81,28.61,38.81z M27.77,43.21h-1.65v-2.75h1.65V43.21z"/>
<path d="M28.61,46.52h-3.3c-0.46,0-0.83,0.37-0.83,0.83v4.42c0,0.46,0.37,0.83,0.83,0.83h3.3c0.46,0,0.83-0.37,0.83-0.83v-4.42
	C29.43,46.9,29.06,46.52,28.61,46.52z M27.77,50.94h-1.65v-2.76h1.65V50.94z"/>
<path d="M69.38,54.23H63.6v-2.3c1.72-0.36,3.3-1.82,3.3-5.14c0-3.04-1.48-7.44-4.14-7.44s-4.14,4.4-4.14,7.44
	c0,3.33,1.58,4.81,3.3,5.14v2.3h-8.26v-2.3c1.72-0.36,3.3-1.82,3.3-5.14c0-3.04-1.48-7.44-4.14-7.44c-2.66,0-4.14,4.4-4.14,7.44
	c0,3.33,1.58,4.81,3.3,5.14v2.3h-8.26v-2.3c1.72-0.36,3.3-1.82,3.3-5.14c0-3.04-1.48-7.44-4.14-7.44s-4.14,4.4-4.14,7.44
	c0,3.33,1.58,4.81,3.3,5.14v2.3h-9.37V28.62c0-0.46-0.37-0.83-0.83-0.83h-9.1V13.18c0-0.46-0.37-0.83-0.83-0.83H4.35
	c-0.46,0-0.83,0.37-0.83,0.83v41.05H1.06c-0.46,0-0.83,0.37-0.83,0.83v4.42c0,0.17,0.05,0.33,0.15,0.47l7.71,11.02
	c0.15,0.23,0.41,0.36,0.67,0.36h8.55l15.22,10.87c0.32,0.23,0.75,0.2,1.03-0.06l10.87-9.79l18.53-4.36
	c0.17-0.05,0.32-0.14,0.45-0.28l6.62-7.71c0.13-0.15,0.2-0.33,0.2-0.53v-4.42C70.2,54.62,69.84,54.23,69.38,54.23L69.38,54.23z
	 M60.28,46.79c0-2.93,1.41-5.78,2.48-5.78c1.07,0,2.48,2.86,2.48,5.78c0,2.28-0.9,3.58-2.48,3.58
	C61.18,50.37,60.28,49.08,60.28,46.79z M50.37,46.79c0-2.93,1.41-5.78,2.48-5.78s2.48,2.86,2.48,5.78c0,2.28-0.9,3.58-2.48,3.58
	C51.28,50.39,50.37,49.08,50.37,46.79z M40.44,46.79c0-2.93,1.41-5.78,2.48-5.78c1.07,0,2.48,2.86,2.48,5.78
	c0,2.28-0.9,3.58-2.48,3.58C41.36,50.39,40.44,49.08,40.44,46.79z M22.8,29.43h8.26v24.8H22.8C22.8,54.23,22.8,29.43,22.8,29.43z
	 M5.18,14.01h15.97v40.22h-4.42v-6.9c0-0.46-0.37-0.83-0.83-0.83h-5.5c-0.46,0-0.83,0.37-0.83,0.83v6.9h-4.4
	C5.18,54.23,5.18,14.01,5.18,14.01z M15.09,48.18v6.06h-3.84v-6.06H15.09z M18.06,69.83c-0.14-0.1-0.31-0.15-0.48-0.15H9.19
	L2.64,60.3h12.55l13.78,6.36l2.77,12.94L18.06,69.83z M62.33,66.45L43.85,70.8c-0.14,0.03-0.25,0.09-0.37,0.2l-9.96,8.96L30.5,65.94
	c-0.06-0.25-0.23-0.47-0.46-0.57l-10.91-5.04h33.91l-3.87,3.87h-6.27c-0.46,0-0.83,0.37-0.83,0.83s0.37,0.83,0.83,0.83h6.62
	c0.22,0,0.42-0.09,0.57-0.24l5.27-5.27h12.19L62.33,66.45L62.33,66.45z M68.56,58.65H1.87V55.9h66.69V58.65z"/>
</svg>
